<svg width="6978" height="4601" viewBox="0 0 6978 4601" fill="none" xmlns="http://www.w3.org/2000/svg">
<path fill-rule="evenodd" clip-rule="evenodd" d="M10.8355 13.84V24.8009V94.5777V105.539H24.361V68.1415V66.2991L59.5496 66.3003V181.939L24.361 181.937L24.3592 142.613L10.8381 142.614V234.637H24.3584L24.3592 195.313H59.55L59.5463 310.751L24.3618 310.75L24.3599 271.514H10.8402L10.8365 280.903L10.8402 287.882L10.8383 346.822V353.803L10.842 363.19L24.3618 363.191L24.3636 323.956L59.5481 323.952L59.5518 439.501L24.3603 439.503L24.361 400.18H10.84V492.074H24.361V452.749L59.5503 452.752L59.5485 568.301L24.364 568.297L24.3621 529.064L10.8424 529.064L10.8387 538.45V545.431V604.372V611.351L10.8424 620.738L24.3621 620.74L24.364 581.503H59.5485L59.5503 696.94H24.361V657.618H10.84V749.641H24.361L24.3629 710.316H59.55L59.5515 825.953L24.3629 825.955V824.111V786.714L10.8374 786.712V797.676V867.451L10.8393 878.412H24.3625V841.015V839.173L59.5511 839.174V954.812L24.3625 954.81L24.3607 915.487H10.8374L10.8393 1007.51H24.3595L24.3603 968.186L59.5496 968.187L59.5489 1083.62L24.364 1083.62L24.3603 1044.39L10.8413 1044.39L10.8376 1053.78V1060.76V1119.7L10.8394 1126.68V1136.06L24.3605 1136.06L24.3623 1096.83L59.5487 1096.83L59.5494 1212.38L24.3601 1212.38V1173.05L10.8391 1173.06L10.8404 1264.94L24.3601 1264.94V1225.62H59.5494L59.5487 1341.17L24.3623 1341.16L24.3605 1301.93L10.8394 1301.93L10.8376 1311.32V1318.3V1381.25V1388.23L10.8413 1397.62L24.361 1397.62L24.3629 1358.38L59.5474 1358.38L59.5492 1473.93L24.3599 1473.93V1434.61H10.8389V1526.49H24.3599V1487.17L59.5507 1487.17L59.5489 1602.72L24.3625 1602.71L24.3607 1563.48L10.8409 1563.48L10.8372 1572.87V1579.85V1638.79L10.8391 1645.77V1655.16H24.3601L24.362 1615.92L59.5483 1615.92V1731.36H24.3575L24.3594 1692.03L10.8383 1692.04L10.8365 1784.06H24.359L24.3627 1744.73L59.5498 1744.73L59.5513 1860.37L24.3627 1860.37V1858.53V1821.13H10.8372L10.8391 1832.09L10.8383 1887.27L10.8391 1903.51L10.8353 1910.49L10.8391 1919.88L24.3588 1919.88L24.3607 1880.64L59.5451 1880.64L59.5489 1996.08H24.3581L24.3573 1956.76H10.837V2048.78L24.3581 2048.78L24.3599 2009.46L59.5485 2009.45V2125.09H24.3599V2123.25V2085.85H10.8344V2096.81V2166.59V2177.55H24.3599V2140.15V2138.31H59.5485V2253.95H24.3599L24.3581 2214.62H10.8348L10.8366 2306.64L24.3577 2306.64L24.3569 2267.32H59.547L59.5451 2382.76L24.3607 2382.76L24.3588 2343.52L10.8391 2343.52L10.8353 2352.91V2359.89V2372.36V2409.83V2422.3V2429.28L10.8391 2438.67H24.3588L24.3607 2399.43H59.5451L59.547 2514.87H24.3569L24.3577 2475.55L10.8366 2475.55L10.8348 2567.57H24.3581L24.3599 2528.25H59.5485V2643.88H24.3599V2642.04V2604.64H10.8344V2615.6V2685.38V2696.34H24.3599V2658.95V2657.1L59.5485 2657.1V2772.74H24.3599L24.3581 2733.42L10.837 2733.42V2825.44H24.3573L24.3581 2786.12H59.5489L59.5451 2901.56L24.3607 2901.55L24.3588 2862.32H10.8391L10.8353 2871.71L10.8391 2878.69L10.8372 2937.63V2944.61L10.8409 2953.99L24.3607 2954L24.3625 2914.76L59.547 2914.76L59.5507 3030.31L24.3592 3030.31L24.3599 2990.99H10.8389V3082.88H24.3599V3043.55H59.5492L59.5474 3159.1H24.3629L24.361 3119.87L10.8413 3119.87L10.8376 3129.26V3136.24V3195.18V3202.16L10.8413 3211.54L24.361 3211.55L24.3629 3172.31H59.5474L59.5492 3287.75H24.3599V3248.42H10.8389V3340.45H24.3599L24.3618 3301.12H59.5489L59.5503 3416.76L24.3618 3416.76V3414.92V3377.52L10.8363 3377.52V3388.48V3458.26L10.8381 3469.22H24.3614V3431.82V3429.98L59.55 3429.98V3545.62L24.3614 3545.62L24.3595 3506.29H10.8363L10.8381 3598.32H24.3584L24.3592 3558.99L59.5485 3558.99L59.5478 3674.43L24.3629 3674.43L24.3592 3635.19H10.8402L10.8365 3644.58V3651.56V3710.5L10.8383 3717.48V3726.86H24.3594L24.3612 3687.63H59.5476L59.5483 3803.18H24.359V3763.86L10.838 3763.86L10.8393 3855.74L24.359 3855.74V3816.42H59.5483L59.5476 3931.97H24.3612L24.3594 3892.73H10.8383L10.8365 3902.12V3909.1V3972.05V3979.03L10.8402 3988.42L24.3599 3988.42L24.3618 3949.18H59.5463L59.5481 4064.73L24.3588 4064.74V4025.41H10.8378V4117.3H24.3588V4077.97H59.5496L59.5478 4193.52H24.3614L24.3595 4154.28H10.8398L10.8361 4163.67V4170.65V4229.59L10.838 4236.57V4245.96H24.359L24.3609 4206.72L59.5472 4206.72V4322.16H24.3564L24.3582 4282.84L10.8372 4282.84L10.8353 4374.86H24.3579L24.3616 4335.54H59.5487L59.5502 4451.17L24.3616 4451.18V4449.33V4411.94H10.8361L10.838 4422.9L10.8376 4472.68L10.838 4487.33L10.8372 4488.93V4494.83L10.8391 4503.7L24.3588 4503.7L24.3607 4464.46L59.5451 4464.46L59.5489 4579.9H24.3581L24.3573 4540.58H10.837V4591.82L28.7917 4591.66H109.788H122.512V4580.01H79.1016H76.9623L76.9637 4549.7H211.197L211.195 4580.01L165.547 4580.01L165.548 4591.65H272.369V4580.01L226.721 4580.01V4549.7H360.722L360.72 4580L315.175 4580.01V4591.65H326.074H334.175L402.593 4591.65H410.696H421.593L421.594 4580.01L376.05 4580.01L376.047 4549.7H510.176L510.177 4580.01L464.532 4580.01V4591.66H571.203V4580.01H525.553L525.557 4549.7H659.685L659.681 4580.01L614.139 4580.01L614.14 4591.65H625.035H633.138H701.557H709.657H720.555L720.557 4580.01L675.011 4580.01V4549.7H809.01V4580.01H763.365V4591.66H870.184V4580.01L824.536 4580.01V4549.7L958.768 4549.7L958.769 4580.01H956.63H913.219L913.217 4591.66H925.943H1006.94L1019.66 4591.66V4580.01H976.252H974.113L974.116 4549.7H1108.35L1108.35 4580.01L1062.7 4580.01V4591.66L1169.52 4591.66V4580.01L1123.87 4580.01L1123.87 4549.7L1257.87 4549.71L1257.87 4580.01H1212.33L1212.33 4591.65H1223.22H1231.33H1299.74L1307.85 4591.65H1318.74L1318.75 4580L1273.2 4580L1273.2 4549.7L1407.33 4549.7L1407.33 4580H1361.68L1361.68 4591.65L1468.34 4591.65L1468.34 4580H1422.7V4549.7L1556.83 4549.7L1556.82 4580L1511.28 4580L1511.28 4591.65L1522.18 4591.65H1530.28H1603.35H1611.46H1622.35L1622.35 4580.01L1576.81 4580.01L1576.81 4549.7H1710.94L1710.94 4580.01H1665.29V4591.66H1771.95V4580.01H1726.3L1726.31 4549.7H1860.44V4580.01L1814.89 4580.01V4591.65H1825.79H1833.89H1902.31L1910.41 4591.65H1921.31V4580.01L1875.76 4580L1875.76 4549.7H2009.76V4580.01L1964.12 4580.01L1964.12 4591.65L2070.93 4591.65V4580.01H2025.29V4549.7L2159.52 4549.7L2159.52 4580.01H2157.39H2113.97V4591.65L2126.7 4591.65H2187.96H2209.6H2217.7H2228.6L2228.6 4580.01L2183.06 4580.01L2183.05 4549.71H2317.06V4580.01L2271.41 4580.01V4591.66H2378.23L2378.23 4580.01L2332.58 4580.01V4549.71H2466.81L2466.82 4580.01H2464.68H2421.27V4591.66H2433.99H2514.99H2527.71V4580.01H2484.3H2482.16V4549.71H2616.39V4580.01L2570.74 4580.01V4591.66L2677.56 4591.66V4580.01L2631.91 4580.01V4549.71H2765.91V4580.01L2720.37 4580.01L2720.37 4591.65H2731.27H2739.37H2753.85H2797.34H2811.82H2819.92H2830.82V4580.01L2785.27 4580.01V4549.71H2919.27V4580.01L2873.63 4580.01L2873.63 4591.66L2980.45 4591.66V4580.01L2934.8 4580.01V4549.71H3069.03V4580.01H3066.89H3023.48V4591.66H3036.2H3117.2H3129.92V4580.01H3086.51H3084.37L3084.38 4549.71H3218.61V4580.01L3172.96 4580.01L3172.96 4591.66H3279.78V4580.01L3234.14 4580.01V4549.71H3368.14L3368.14 4580.01L3322.59 4580.01V4591.65H3333.49H3341.59L3410.01 4591.65H3418.11H3429.01L3429.01 4580.01L3383.47 4580.01V4549.71H3517.59L3517.6 4580.02L3471.95 4580.01V4591.66H3578.62V4580.01H3532.97V4549.71H3667.09V4580.01L3621.55 4580.01L3621.55 4591.66H3632.45H3640.55H3708.97H3717.07H3727.97V4580.01L3682.42 4580.01V4549.71H3816.42V4580.01H3770.77V4591.66H3877.59V4580.01L3831.94 4580.01V4549.71L3966.18 4549.71L3966.18 4580.01H3964.04H3920.63L3920.63 4591.66H3933.35H4014.35L4027.07 4591.66V4580.01H3983.66H3981.52V4549.71H4115.75L4115.75 4580.01L4070.11 4580.01V4591.66L4176.92 4591.66V4580.02L4131.28 4580.01L4131.28 4549.71L4265.28 4549.71L4265.28 4580.01H4219.73V4591.65H4230.63H4238.73H4307.15L4315.25 4591.65H4326.14V4580.01L4280.6 4580.01V4549.7L4414.73 4549.7V4580.01H4369.08L4369.08 4591.65L4475.74 4591.65L4475.74 4580.01H4430.1V4549.7L4564.23 4549.7V4580.01L4518.68 4580.01V4591.65L4529.58 4591.65H4537.68H4610.76H4618.86H4629.75L4629.75 4580.01L4584.21 4580.01V4549.71H4718.34L4718.34 4580.01H4672.69V4591.66H4779.35V4580.01H4733.71V4549.71L4867.83 4549.71V4580.01L4822.29 4580.01V4591.66H4833.19H4841.29H4909.71L4917.81 4591.66H4928.71V4580.01L4883.16 4580.01L4883.16 4549.71H5017.16V4580.01H4971.51L4971.51 4591.66L5078.33 4591.66V4580.01H5032.69V4549.71L5166.92 4549.71L5166.92 4580.01H5164.78H5121.37V4591.66L5134.1 4591.66L5189.37 4591.66L5208.89 4591.66L5210.75 4591.66H5217.6L5227.89 4591.66L5227.89 4580.02L5182.35 4580.02V4549.71H5316.35V4580.02L5270.7 4580.02V4591.67H5377.52L5377.52 4580.02L5331.87 4580.02V4549.71H5466.11V4580.02H5463.97H5420.56V4591.67H5433.28H5514.28H5527V4580.02H5483.59H5481.45V4549.71H5615.68V4580.02L5570.03 4580.02V4591.67L5676.85 4591.67V4580.02L5631.2 4580.02V4549.72H5765.2V4580.02L5719.66 4580.02V4591.66H5730.55H5738.66H5753.13H5796.63H5811.11H5819.21H5830.11V4580.02L5784.56 4580.02V4549.72H5918.56V4580.02L5872.92 4580.02L5872.92 4591.67L5979.74 4591.67V4580.02L5934.09 4580.02V4549.71H6068.32V4580.02H6066.18H6022.77V4591.67H6035.49H6116.49H6129.21V4580.02H6085.8H6083.66L6083.66 4549.71H6217.9V4580.02L6172.25 4580.02L6172.25 4591.67H6279.07V4580.02L6233.42 4580.02V4549.71H6367.42L6367.42 4580.02L6321.88 4580.02V4591.66H6332.78H6340.88L6409.29 4591.66H6417.4H6428.29L6428.3 4580.02L6382.75 4580.02V4549.72H6516.88L6516.88 4580.02L6471.24 4580.02V4591.67H6577.91V4580.02H6532.26V4549.72H6666.39V4580.02L6620.84 4580.02L6620.85 4591.66H6631.74H6639.84H6708.26H6716.36H6727.26V4580.02L6681.71 4580.02V4549.72H6815.71V4580.02H6770.07V4591.67H6876.89V4580.02L6831.24 4580.02V4549.72L6963.33 4549.72L6963.33 4580.02H6961.19H6919.92L6919.92 4591.67H6932.65H6967.17C6967.15 4590.51 6967.15 4589.05 6967.15 4587.16V4576.2V4506.42V4495.46H6953.63V4532.86V4534.7L6918.44 4534.7V4419.06H6953.63V4458.39L6967.15 4458.39V4366.36H6953.63L6953.63 4405.69H6918.44V4290.25L6953.62 4290.25V4329.49H6967.14V4320.1V4313.12V4254.18V4247.2V4237.81L6953.62 4237.81V4277.04H6918.44V4161.49L6953.63 4161.49L6953.63 4200.81H6967.15V4108.92H6953.63V4148.25H6918.44V4032.7H6953.62V4071.93L6967.14 4071.93V4062.54V4055.56V3996.62V3989.64V3980.26H6953.62V4019.49H6918.44V3904.06H6953.63V3943.38H6967.15V3851.36H6953.63V3890.68H6918.44L6918.44 3775.04L6953.63 3775.04V3776.89V3814.28L6967.15 3814.28V3803.32V3733.55V3722.58H6953.63V3759.98V3761.82L6918.44 3761.82V3646.18L6953.63 3646.19V3685.51H6967.15V3593.49H6953.63L6953.63 3632.81L6918.44 3632.81L6918.44 3517.37L6953.63 3517.37V3556.61H6967.15V3547.22V3540.24V3481.3V3474.32V3464.94L6953.63 3464.94V3504.17H6918.44L6918.44 3388.62H6953.63V3427.93L6967.15 3427.93L6967.15 3336.05L6953.63 3336.05V3375.37H6918.44L6918.44 3259.82H6953.63V3299.06L6967.15 3299.05V3289.67V3282.69V3219.73V3212.75V3203.37L6953.63 3203.37V3242.6H6918.44V3127.05L6953.63 3127.05V3166.37H6967.15V3074.49H6953.63V3113.81H6918.44V2998.26H6953.63V3037.5L6967.15 3037.5V3028.11V3021.13V2962.19V2955.21V2945.82H6953.63V2985.06L6918.44 2985.06V2869.62H6953.63V2908.94L6967.15 2908.94V2816.92H6953.63V2856.25L6918.44 2856.25L6918.44 2740.61L6953.63 2740.61V2742.45V2779.85H6967.16V2768.89L6967.16 2713.71L6967.16 2697.47V2690.49V2681.1L6953.64 2681.1V2720.34L6918.45 2720.34V2604.9H6953.64L6953.64 2644.22H6967.16V2552.2L6953.64 2552.2V2591.52H6918.45V2475.89L6953.64 2475.88V2477.73V2515.12H6967.17V2504.16V2434.39V2423.42H6953.64V2460.82V2462.66H6918.45V2347.03H6953.64V2386.35H6967.17V2294.33L6953.64 2294.33L6953.64 2333.65H6918.45V2218.22L6953.64 2218.22V2257.45L6967.16 2257.45V2248.06V2241.08V2228.61V2191.14V2178.67V2171.69V2162.3H6953.64V2201.54H6918.45V2086.1H6953.64L6953.64 2125.42L6967.17 2125.42V2033.4H6953.64V2072.73H6918.45V1957.09H6953.64V1958.93V1996.33H6967.17V1985.37V1915.59V1904.63H6953.64V1942.03V1943.87L6918.45 1943.87V1828.23L6953.64 1828.23V1867.56L6967.16 1867.56V1775.53H6953.64L6953.64 1814.86H6918.45V1699.43L6953.64 1699.43V1738.67H6967.16V1729.28V1722.3V1663.36V1656.38V1646.99L6953.64 1646.99V1686.23L6918.45 1686.23V1570.68L6953.64 1570.68L6953.64 1610H6967.16V1518.11H6953.64V1557.43L6918.45 1557.43V1441.88L6953.64 1441.88V1481.12L6967.16 1481.12V1471.73V1464.75V1405.81V1398.83V1389.44L6953.64 1389.44V1428.68H6918.45V1313.24H6953.64V1352.56H6967.16V1260.54H6953.64V1299.87H6918.46L6918.45 1184.23L6953.64 1184.23V1186.07V1223.47L6967.17 1223.47V1212.51V1142.73V1131.77H6953.64V1169.17V1171.01L6918.46 1171.01V1055.37L6953.64 1055.37V1094.69H6967.17V1002.67H6953.65L6953.65 1042L6918.46 1041.99L6918.46 926.557L6953.64 926.558V965.795L6967.16 965.791V956.405V949.426V890.485V883.505V874.118L6953.64 874.116V913.351L6918.45 913.355L6918.45 797.806L6953.64 797.804V837.128L6967.16 837.127L6967.16 745.244L6953.64 745.243V784.566H6918.45L6918.45 669.016L6953.64 669.02V708.256L6967.16 708.252V698.865V691.886V628.934V621.953V612.567L6953.64 612.566V651.799L6918.46 651.803V536.254L6953.65 536.252V575.578H6967.17V483.691H6953.65V523.016L6918.46 523.012V407.464L6953.64 407.468V446.703L6967.16 446.701V437.314V430.335V371.393V364.414V355.027H6953.64V394.263L6918.45 394.264V278.824H6953.65V318.148L6967.17 318.146V226.126H6953.64V265.448L6918.46 265.45L6918.46 149.812L6953.64 149.811V151.652V189.05H6967.17V178.088L6967.17 128.306L6967.17 113.655L6967.17 112.053V106.157L6967.17 97.289L6953.65 97.288V136.523L6918.47 136.525V21.087H6953.66L6953.66 60.4105H6967.18V9.19415L6949.22 9.33068H6868.23H6855.5V20.979H6898.91H6901.05L6901.05 51.2844H6766.82V20.979L6812.47 20.9775L6812.47 9.33226H6705.64V20.9765L6751.28 20.9775V51.2844L6617.28 51.2805L6617.28 20.9787L6662.83 20.9771V9.33286L6651.93 9.32891L6643.83 9.33089L6575.41 9.3293H6567.31L6556.41 9.33128L6556.41 20.9755L6601.95 20.9771V51.2789L6467.82 51.2829L6467.82 20.9749L6513.47 20.9759V9.33068H6406.8V20.9759H6452.45V51.2819L6318.32 51.2799V20.9781L6363.86 20.9765L6363.86 9.33226L6352.97 9.33029H6344.86H6276.44H6268.34L6257.45 9.33226V20.9765L6302.99 20.9781V51.2799L6168.99 51.2819V20.9759H6214.64V9.33068H6107.82V20.9759L6153.47 20.9775V51.2819L6019.23 51.2829L6019.23 20.9775H6021.37H6064.78L6064.79 9.32911H6052.06H5971.06L5958.34 9.33068V20.9775H6001.75H6003.89V51.2829H5869.66L5869.66 20.9775L5915.31 20.9759V9.32911L5808.49 9.33068V20.9749L5854.13 20.9759L5854.13 51.2819L5720.13 51.2809L5720.13 20.9785L5765.68 20.9745V9.33128L5754.79 9.3293H5746.68H5678.26L5670.16 9.33089H5659.27V20.9761L5704.81 20.9777V51.2811L5570.68 51.2821V20.9761H5616.33L5616.33 9.33089L5509.67 9.33187L5509.67 20.9761H5555.32V51.2821L5421.19 51.2811V20.9777L5466.73 20.9761V9.33089L5455.83 9.3293H5447.73H5374.66H5366.55L5355.66 9.33128L5355.66 20.9755L5401.2 20.9771V51.2789L5267.07 51.2809L5267.07 20.9749H5312.72V9.3297H5206.05V20.9749H5251.7V51.2819L5117.57 51.2799V20.9765L5163.12 20.9749V9.33068L5152.22 9.32871H5144.12H5075.7L5067.6 9.33029H5056.7V20.9755L5102.25 20.9771L5102.25 51.2805H4968.25V20.9735L5013.89 20.9755L5013.89 9.33029L4907.07 9.32871V20.9745L4952.72 20.9765V51.2809L4818.49 51.2819L4818.48 20.9765H4820.62H4864.03V9.32812L4851.31 9.3297L4790.04 9.3295L4768.41 9.3297L4760.31 9.32772L4749.41 9.33168L4749.41 20.9759L4794.95 20.9775V51.2793L4660.95 51.2833V20.9763L4706.6 20.9753V9.33108H4599.78L4599.78 20.9763L4645.42 20.9779V51.2833H4511.19V20.9779H4513.33H4556.74V9.3295H4544.02H4463.02H4450.3V20.9779H4493.71H4495.85V51.2833H4361.62V20.9779L4407.27 20.9763V9.3295L4300.45 9.33108V20.9763L4346.1 20.9753V51.2823L4212.1 51.2803V20.9785L4257.64 20.9769V9.33266L4246.74 9.33068H4238.64H4224.16H4180.67H4166.19H4158.09L4147.19 9.33266V20.9769L4192.74 20.9785V51.2803L4058.74 51.2823V20.9753L4104.38 20.9763L4104.38 9.33108L3997.56 9.3295V20.9763L4043.21 20.9779V51.2833H3908.98V20.9779H3911.12H3954.53V9.3295H3941.81H3860.81H3848.09V20.9779H3891.5H3893.64L3893.64 51.2833H3759.4V20.9779L3805.05 20.9763L3805.05 9.33108H3698.23V20.9753L3743.88 20.9763V51.2833L3609.88 51.2793L3609.88 20.9775L3655.42 20.9759V9.33168L3644.52 9.32772L3636.42 9.3297L3568 9.32812H3559.9L3549 9.3301L3549 20.9743L3594.55 20.9759V51.2777L3460.42 51.2817L3460.42 20.9737L3506.06 20.9747V9.3295H3399.39V20.9747H3445.04V51.2807L3310.91 51.2787V20.9769L3356.45 20.9753L3356.45 9.33108L3345.56 9.32911H3337.46H3269.04H3260.94L3250.04 9.33108L3250.04 20.9753L3295.58 20.9769V51.2787L3161.58 51.2807V20.9747H3207.23V9.3295H3100.41V20.9747L3146.06 20.9763V51.2807L3011.83 51.2817L3011.82 20.9763H3013.96H3057.37L3057.38 9.32792H3044.65H2963.66L2950.93 9.3295V20.9763H2994.34H2996.48V51.2817H2862.25L2862.25 20.9763L2907.9 20.9747V9.32792L2801.08 9.3295V20.9737L2846.72 20.9747L2846.72 51.2807L2712.72 51.2797L2712.72 20.9773L2758.27 20.9733V9.3301L2747.38 9.32812H2739.27H2670.86L2662.75 9.3297H2651.86L2651.86 20.9749L2697.4 20.9765V51.2799L2563.27 51.2809V20.9749H2608.92L2608.92 9.3297L2502.26 9.33068L2502.26 20.9749H2547.91V51.2809L2413.77 51.2799V20.9765L2459.32 20.9749L2459.32 9.3297L2448.42 9.32812H2440.32H2367.24H2359.14L2348.25 9.3301L2348.24 20.9743L2393.79 20.9759V51.2777L2259.66 51.2797L2259.65 20.9737H2305.3V9.32851H2198.64V20.9737H2244.29V51.2807L2110.16 51.2787V20.9753L2155.7 20.9737V9.3295L2144.81 9.32753H2136.71H2068.29L2060.19 9.32911H2049.29V20.9743L2094.83 20.9759L2094.84 51.2793H1960.83V20.9723L2006.48 20.9743L2006.47 9.32911L1899.66 9.32753V20.9733L1945.3 20.9753V51.2797L1811.07 51.2807L1811.07 20.9753H1813.21H1856.62V9.32693L1843.89 9.32851L1788.62 9.32832L1769.1 9.32851L1767.24 9.32792H1760.39L1750.1 9.33029L1750.1 20.9745L1795.64 20.9761V51.2779L1661.64 51.2819V20.9749L1707.29 20.9739V9.3297H1600.47L1600.47 20.9749L1646.12 20.9765L1646.12 51.2819H1511.88L1511.88 20.9765H1514.02H1557.43V9.32812H1544.71H1463.71H1450.99V20.9765H1494.4H1496.54L1496.53 51.2819H1362.31V20.9765L1407.96 20.9749V9.32812L1301.14 9.3297L1301.14 20.9749L1346.79 20.9739V51.2809L1212.79 51.2789L1212.79 20.9771L1258.34 20.9755L1258.33 9.33128L1247.44 9.3293H1239.33H1224.86H1181.36H1166.88H1158.78L1147.88 9.33128L1147.88 20.9755L1193.42 20.9771L1193.43 51.2789L1059.43 51.2809V20.9739L1105.07 20.9749L1105.07 9.3297L998.254 9.32812V20.9749L1043.9 20.9765V51.2819H909.672L909.669 20.9765H911.807H955.218V9.32812H942.495H861.498H848.775V20.9765H892.185H894.324L894.323 51.2819H760.089L760.091 20.9765L805.739 20.9749L805.738 9.3297H698.917V20.9739L744.566 20.9749V51.2819L610.564 51.2779L610.566 20.9761L656.111 20.9745V9.33029L645.212 9.32635L637.111 9.32832L568.693 9.32674H560.59L549.693 9.32871L549.692 20.9729L595.236 20.9745L595.24 51.2763L461.11 51.2803L461.109 20.9723L506.754 20.9733V9.32812H400.084V20.9733H445.733L445.729 51.2793L311.601 51.2773L311.605 20.9755L357.148 20.9739L357.146 9.3297L346.251 9.32772H338.149H269.73H261.629L250.731 9.3297L250.729 20.9739L296.276 20.9755V51.2773L162.276 51.2793V20.9733H207.921V9.32812H101.103V20.9733L146.75 20.9749V51.2793L15.7704 51.2803L15.7693 20.9749H17.9082H58.0677L58.0692 9.32654H45.3431H10.8171C10.8264 10.4859 10.8357 11.9479 10.8357 13.8358L10.8355 13.84ZM10.8374 4600.99L0.00446087 4600.99V4528.08L35.1938 4528.08L35.1945 4568.18H48.7102L48.7064 4477.74L35.1956 4477.74V4514.83H0.00409208V4494.31V4487.34V4423.83V4422.9V4400.82L35.1915 4400.82L35.1934 4437.91H48.7091V4347.28H35.1934V4387.37H0.00334742V4270.35L35.1949 4270.35L35.1934 4310.44H48.7105L48.705 4220H35.1927L35.1942 4257.09L0.00260276 4257.1L0.00148932 4241.71V4234.84L0.00260276 4229.6V4170.66L0.00409208 4163.68L0.00260276 4143.17L35.1942 4143.17L35.1927 4180.26H48.705L48.7087 4089.71L35.193 4089.71V4129.8L0.00297155 4129.8V4121.22L0.00446087 4021.51L0.00297155 4012.92H35.193V4053.01H48.7087L48.705 3962.46L35.1942 3962.46V3999.55L0.00409208 3999.55V3987.2V3983.83L0.00520553 3979.04V3972.06V3909.1V3902.13V3895.73V3881.61L35.1953 3881.61V3918.7H48.7076L48.7113 3828.16H35.1956V3868.25L0.00557431 3868.25L0.00706363 3859.66L0.00557431 3759.95V3751.36H35.1971L35.1956 3791.46H48.7113L48.7076 3700.91L35.1953 3700.91L35.1967 3738L0.00520553 3738V3717.48V3710.51V3651.56L0.00669484 3644.59L0.00520553 3624.07L35.1967 3624.07L35.1953 3661.16H48.7076L48.7113 3570.73L35.1956 3570.73V3610.82H0.00446087V3581.56L0.00557431 3493.8H35.1949L35.1967 3533.89H48.7109V3443.26H35.1953L35.1897 3480.35L0.00446087 3480.35V3458.26V3388.49V3366.4H35.1919L35.1938 3403.5H48.7094V3312.86L35.1953 3312.86L35.1938 3352.95L0.00371621 3352.95L0.00260276 3282.74V3235.93H35.1938L35.193 3276.02H48.7094L48.7057 3185.59H35.1934V3222.68L0.00334742 3222.68V3202.16V3195.18V3136.24V3129.26L0.00482965 3108.75L35.1949 3108.75L35.1934 3145.84H48.705L48.7087 3055.29H35.193V3095.38L0.00297155 3095.39V3086.79V2987.09V2978.49H35.1945L35.193 3018.58H48.7087L48.705 2928.03H35.1927L35.1942 2965.12H0.00260276V2944.6V2937.62V2878.69V2871.71V2851.19H35.1942V2888.28L48.705 2888.28L48.7087 2797.84H35.193L35.1923 2837.93L0.00297155 2837.94V2720.91L35.193 2720.91L35.1945 2761.01L48.7087 2761.01V2670.37H35.1923L35.1886 2707.47L0.00334742 2707.47V2685.38V2615.6V2593.51H35.1908L35.1927 2630.61H48.7083V2539.97H35.1942L35.1927 2580.07H0.00260276L0.00409208 2463.05H35.1908L35.1927 2503.14L48.7083 2503.14L48.7046 2412.7H35.1938V2449.79H0.00222689V2429.28V2422.3V2409.83V2372.36V2359.89V2352.91V2332.39H35.1938V2369.48H48.7046L48.7083 2279.05L35.1927 2279.05L35.1908 2319.14H0.00409208L0.00260276 2202.12H35.1927L35.1942 2242.21L48.7083 2242.21V2151.57H35.1927L35.1908 2188.67H0.00334742V2166.58V2096.81V2074.72L35.1886 2074.72L35.1923 2111.81H48.7087V2021.18L35.1945 2021.17L35.193 2061.27L0.00297155 2061.27V1944.25L35.1923 1944.25L35.193 1984.34H48.7087L48.705 1893.9L35.1942 1893.9V1931L0.00260276 1931V1910.48V1903.5V1839.99V1832.08V1810L35.1901 1810L35.1919 1847.09H48.7076V1756.46L35.1919 1756.45V1796.55H0.0018581V1679.52L35.1934 1679.52L35.1919 1719.62H48.7091L48.7035 1629.18H35.1912L35.1927 1666.27L0.00111344 1666.27L0 1650.89V1644.01L0.00111344 1638.78V1579.84L0.00260276 1572.86L0.00111344 1552.34L35.1927 1552.35L35.1912 1589.44H48.7035L48.7072 1498.89L35.1915 1498.89V1538.98L0.00148932 1538.98V1530.39L0.00297155 1430.68L0.00148932 1422.09L35.1915 1422.1V1462.19H48.7072L48.7035 1371.64L35.1927 1371.64V1408.73L0.00260276 1408.73V1396.38V1393.01L0.00371621 1388.22V1381.24V1318.28V1311.31V1304.91V1290.79L35.1938 1290.79V1327.88H48.7061L48.7098 1237.34H35.1942V1277.43L0.00409208 1277.43L0.00557431 1268.84L0.00409208 1169.13V1160.54H35.1956L35.1942 1200.64H48.7098L48.7061 1110.09L35.1938 1110.09L35.1953 1147.18L0.00371621 1147.18V1126.66V1119.68V1060.74L0.00520553 1053.77L0.00371621 1033.25L35.1953 1033.25L35.1938 1070.34H48.7061L48.7098 979.906L35.1942 979.905V1020H0.00297155V990.742L0.00409208 902.976H35.1934L35.1953 943.071L48.7094 943.068V852.433H35.1938L35.1882 889.527L0.00297155 889.526V867.44V797.665V775.575H35.1904L35.1923 812.671H48.7079V722.035L35.1938 722.034L35.1923 762.128L0.00222689 762.129L0.00111344 691.915V645.106H35.1923L35.1915 685.2H48.7079L48.7042 594.761H35.1919V631.854L0.0018581 631.855V611.338V604.36V545.418V538.439L0.00334742 517.922L35.1934 517.924L35.1919 555.016H48.7035L48.7072 464.469H35.1915V504.56L0.00148932 504.561V495.965V396.264V387.666L35.193 387.67L35.1915 427.761H48.7072L48.7035 337.213H35.1912L35.1927 374.302L0.00111344 374.305V353.788V346.808V287.869V280.892V260.372L35.1927 260.376V297.47L48.7035 297.468L48.7072 207.03H35.1915L35.1908 247.123L0.00148932 247.124V130.1L35.1915 130.099L35.193 170.197L48.7072 170.195V79.5691H35.1908L35.1871 116.664L0.0018581 116.664V94.5775V24.8007V9.33049L0.00074466 0.00237081H45.3394H70.9806V30.3068L31.1727 30.3087V41.9482H133.13L133.132 30.3095L86.5904 30.3087L86.5889 0.00158054L222.429 0V30.3087L175.888 30.308V41.9482L280.871 41.9463V30.3093H237.813L237.812 0.0021676H261.628H269.728H338.148H346.248L370.064 0.00394382L370.062 30.3101L327.006 30.3093V41.9455L432.113 41.9494V30.3099H385.576L385.575 0.00276218H395.552H511.285H521.266L521.262 30.3107L474.724 30.3099V41.9494L579.832 41.9474V30.3105L536.78 30.3113L536.774 0.00335676H560.591H568.693H637.108H645.208H669.028L669.024 30.3113H625.966L625.968 41.9474L730.948 41.9494V30.3099L684.409 30.3091L684.407 0.00276218H820.248L820.25 30.3099L773.703 30.3107L773.705 41.9494H878.916V30.3091L835.856 30.3052L835.858 0.00237081H861.495H942.491H968.13V30.3068L925.071 30.3087V41.9482H1030.28L1030.28 30.3095L983.739 30.3087V0.00158054L1119.58 0.00335676V30.307L1073.04 30.3087L1073.04 41.9482L1178.02 41.9463V30.3101H1134.96V0.0021676H1158.78H1166.88H1181.35H1224.85H1239.33H1247.43H1271.24V30.3101H1228.19V41.9463L1333.17 41.9482L1333.17 30.3087L1286.63 30.307V0.00335676L1422.47 0.00158054V30.3087L1375.93 30.3095L1375.93 41.9482H1481.14V30.3087L1438.08 30.3068V0.00237081H1463.72H1544.71H1570.35L1570.35 30.3052L1527.29 30.3091V41.9494H1632.5L1632.5 30.3107L1585.96 30.3099L1585.96 0.00276218H1721.8L1721.8 30.3091L1675.26 30.3099V41.9494L1780.24 41.9474L1780.24 30.3113H1737.18L1737.18 0.00335676H1761H1769.1H1842.82H1843.89H1869.53L1869.53 30.3078L1826.47 30.3097V41.9492H1931.68V30.3097H1885.14V0.00256649H2020.98L2020.98 30.3105L1974.44 30.3097V41.9512L2079.42 41.9472V30.3103L2036.37 30.3111L2036.37 0.00315355L2060.18 0.00237081L2068.28 0.00315355H2136.7L2144.8 0.00492978L2168.61 0.00315355L2168.61 30.3111L2125.56 30.3103V41.9472L2230.67 41.9492L2230.67 30.3097H2184.13L2184.13 0.00256649H2194.1L2309.84 0.00434272L2319.81 0.00256649V30.3097H2273.27V41.9492L2378.38 41.9472L2378.38 30.3111H2335.32L2335.32 0.00492978L2351.71 0.00295787L2359.14 0.00374814H2367.24H2440.31H2448.41H2455.84H2472.23L2472.23 30.3109H2429.17V41.9478L2534.28 41.9498V30.3103H2487.74L2487.74 0.00315355L2497.71 0.00492978L2613.45 0.00315355H2623.42V30.3111L2576.88 30.3103V41.9498L2681.99 41.9478L2681.99 30.3109L2638.93 30.3117L2638.93 0.00374814H2662.75H2670.85H2739.27L2747.37 0.00552436L2771.18 0.00374814L2771.18 30.3117L2728.12 30.3109V41.9478L2833.1 41.9498L2833.1 30.3103H2786.56V0.00237081L2922.4 0.00315355V30.3095L2875.86 30.3111V41.9498H2981.07V30.3103L2938.01 30.3064L2938.01 0.00355245H2963.65H3044.64H3070.28V30.308L3027.22 30.3099V41.9494H3132.43L3132.43 30.3107L3085.89 30.3099L3085.89 0.00276218L3221.73 0.00118164V30.3099L3175.19 30.3091V41.9494L3280.17 41.9474V30.3105H3237.12L3237.12 0.00335676H3260.93H3269.03H3337.45H3345.55L3369.37 0.00513299L3369.37 30.3113L3326.31 30.3105V41.9466L3431.42 41.9506V30.3111H3384.88L3384.88 0.00394382H3394.86H3510.59H3520.57V30.3119L3474.03 30.3111V41.9506L3579.14 41.9486V30.3117L3536.09 30.3125V0.00453841H3559.9H3568.01H3636.42H3644.52H3668.34V30.3125H3625.28V41.9486L3730.26 41.9506V30.3111L3683.72 30.3103L3683.72 0.00394382H3819.56L3819.56 30.3111L3773.02 30.3119V41.9506H3878.23V30.3103L3835.17 30.3064L3835.17 0.00355245H3860.81H3941.8H3967.44V30.308L3924.38 30.3099V41.9494H4029.59V30.3107L3983.05 30.3099V0.00276218L4118.89 0.00453841V30.3082L4072.35 30.3099L4072.35 41.9494L4177.33 41.9474V30.3113H4134.27V0.00335676H4158.09H4166.19H4180.66H4224.16H4238.64H4246.74H4270.55V30.3113H4227.5V41.9474L4332.48 41.9494L4332.48 30.3099L4285.94 30.3082V0.00453841L4421.78 0.00276218V30.3099L4375.23 30.3107V41.9494H4480.44V30.3099L4437.38 30.308V0.00355245H4463.02H4544.02H4569.66L4569.66 30.3064L4526.6 30.3103V41.9506H4631.81L4631.81 30.3119L4585.27 30.3111L4585.27 0.00394382H4721.11L4721.11 30.3103L4674.57 30.3111V41.9506L4779.55 41.9486L4779.55 30.3125H4736.49V0.00453841H4760.31H4768.41H4842.13H4851.31H4876.95L4876.95 30.3089L4833.89 30.3109V41.9504H4939.1V30.3109H4892.55V0.00374814H5028.39L5028.39 30.3117L4981.85 30.3109V41.9524L5086.83 41.9484V30.3115L5043.77 30.3123L5043.77 0.00434272L5067.59 0.00355245L5075.69 0.00434272H5144.11L5152.21 0.00611894L5176.02 0.00434272L5176.02 30.3123L5132.97 30.3115V41.9484L5238.07 41.9504L5238.08 30.3109H5191.54L5191.54 0.00374814H5201.5L5317.25 0.00552436L5327.22 0.00374814V30.3109H5280.68V41.9504L5385.79 41.9484L5385.79 30.3123H5342.73L5342.73 0.00611894L5359.12 0.00414703L5366.54 0.00492978H5374.64H5447.72H5455.82H5463.25H5479.64L5479.63 30.3121H5436.58V41.949L5541.69 41.951V30.3115H5495.15L5495.15 0.00434272L5505.12 0.00611894L5620.86 0.00434272H5630.83V30.3123L5584.29 30.3115V41.951L5689.39 41.949L5689.4 30.3121L5646.34 30.3129L5646.34 0.00492978H5670.15H5678.25H5746.67L5754.77 0.006706L5778.59 0.00492978L5778.59 30.3129L5735.53 30.3121V41.949L5840.51 41.951L5840.51 30.3115H5793.97V0.00355245L5929.81 0.00434272V30.3107L5883.27 30.3123V41.951H5988.48V30.3115L5945.42 30.3076L5945.42 0.00473409H5971.05H6052.05H6077.69V30.3091L6034.63 30.3111V41.9506H6139.84L6139.84 30.3119L6093.3 30.3111L6093.3 0.00394382L6229.14 0.00237081V30.3111L6182.6 30.3103V41.9506L6287.58 41.9486V30.3117H6244.52L6244.52 0.00453841H6268.34H6276.44H6344.86H6352.96L6376.77 0.00631463V30.3125L6333.72 30.3117V41.9478L6438.83 41.9518V30.3123H6392.29L6392.29 0.00513299H6402.26H6518H6527.98V30.3131L6481.44 30.3123V41.9518L6586.55 41.9498V30.3129L6543.5 30.3137V0.00572005H6567.31H6575.41H6643.83H6651.93H6675.75V30.3137H6632.69V41.9498L6737.67 41.9518V30.3123L6691.13 30.3115L6691.13 0.00513299H6826.97L6826.97 30.3123L6780.43 30.3131V41.9518H6885.64V30.3115L6842.58 30.3076L6842.58 0.00473409H6868.22H6949.21H6967.17L6978 0.00315355V72.9126L6942.81 72.9112L6942.81 32.8184H6929.29V123.256L6942.81 123.257V86.1613L6978 86.1595V106.679V113.656V177.166V178.09V200.175L6942.81 200.177V163.084H6929.29V253.717L6942.81 253.719V213.623H6978V330.648L6942.81 330.646L6942.81 290.552H6929.29V380.993H6942.8L6942.8 343.899L6977.99 343.898L6978 359.285V366.159L6977.99 371.393V430.333L6977.99 437.311L6977.99 457.827L6942.8 457.826L6942.8 420.736H6929.29V511.284L6942.81 511.284V471.193L6978 471.191V479.779L6978 579.488L6978 588.078L6942.81 588.076V547.984H6929.29V638.531L6942.8 638.533V601.441L6977.99 601.44V613.794V617.158L6977.99 621.956V628.935V691.887V698.866V705.263V719.382L6942.8 719.381V682.289H6929.29V772.836H6942.81V732.745L6978 732.744L6977.99 741.331L6978 841.042V849.628H6942.8L6942.81 809.536H6929.29V900.084L6942.8 900.085L6942.8 862.992L6977.99 862.993V883.507V890.487V949.428L6977.99 956.406L6977.99 976.923L6942.8 976.922L6942.8 939.827H6929.29V1030.26L6942.81 1030.27V990.173H6978V1019.43L6978 1107.2H6942.81V1067.1L6929.29 1067.1V1157.74H6942.81V1120.64L6977.99 1120.65V1142.73V1212.51V1234.6H6942.81V1197.5H6929.29V1288.14L6942.8 1288.14L6942.81 1248.04L6978 1248.04L6978 1318.26V1365.07H6942.81L6942.81 1324.97H6929.29V1415.41H6942.8V1378.32L6977.99 1378.32V1398.83V1405.81V1464.75V1471.73L6977.99 1492.25L6942.8 1492.25L6942.8 1455.15H6929.29V1545.7H6942.81V1505.61L6978 1505.61V1514.21V1613.91V1622.5L6942.8 1622.5L6942.81 1582.41H6929.29V1672.96H6942.8L6942.8 1635.87L6977.99 1635.86V1656.38V1663.36V1722.3V1729.28V1749.8L6942.8 1749.79V1712.7L6929.29 1712.7V1803.14H6942.81L6942.81 1763.05L6978 1763.05V1880.07L6942.81 1880.07L6942.8 1839.97L6929.29 1839.97V1930.61H6942.81V1893.52L6977.99 1893.52V1915.6V1985.38V2007.47H6942.8V1970.37H6929.29V2061.01H6942.8L6942.8 2020.91H6977.99L6977.99 2137.93H6942.81V2097.84L6929.29 2097.84V2188.28H6942.8V2151.19H6977.99V2171.7V2178.68V2191.15V2228.62V2241.09V2248.07V2268.59H6942.8V2231.5H6929.29V2321.93L6942.81 2321.93V2281.84H6977.99L6977.99 2398.86H6942.8L6942.8 2358.77L6929.29 2358.77V2449.41H6942.8V2412.31H6977.99V2434.4V2504.17V2526.26L6942.81 2526.26V2489.17H6929.29V2579.8L6942.8 2579.81L6942.81 2539.71L6978 2539.71V2656.73L6942.81 2656.73L6942.81 2616.64H6929.29V2707.08L6942.8 2707.08V2669.98L6977.99 2669.98V2690.5V2697.48V2760.99V2768.9V2790.98L6942.81 2790.98V2753.89H6929.29V2844.52L6942.81 2844.53V2804.43H6978V2921.46L6942.8 2921.46L6942.81 2881.36H6929.29V2971.8H6942.8L6942.8 2934.71L6977.99 2934.71L6977.99 2950.09V2956.97L6977.99 2962.2V3021.14L6977.99 3028.12L6977.99 3048.64L6942.8 3048.63L6942.8 3011.55H6929.29V3102.09L6942.8 3102.09V3062L6977.99 3062V3070.59L6977.99 3170.3L6977.99 3178.89L6942.8 3178.88V3138.79H6929.29V3229.34L6942.8 3229.34V3192.25L6977.99 3192.25V3204.6V3207.97L6977.99 3212.76V3219.74V3282.7V3289.67V3296.07V3310.19L6942.8 3310.19V3273.1H6929.29V3363.64H6942.8V3323.55L6977.99 3323.55L6977.99 3332.14L6977.99 3431.85V3440.44H6942.8L6942.8 3400.34H6929.29V3490.89L6942.8 3490.89L6942.8 3453.8L6977.99 3453.8V3474.32V3481.3V3540.24L6977.99 3547.22L6977.99 3567.73L6942.8 3567.73L6942.8 3530.64H6929.29V3621.07L6942.8 3621.07V3580.98H6977.99V3610.24L6977.99 3698H6942.8V3657.91H6929.29V3748.54H6942.8V3711.45L6977.99 3711.45V3733.54V3803.31V3825.4H6942.8V3788.3H6929.29V3878.94L6942.8 3878.94L6942.8 3838.85L6977.99 3838.85L6977.99 3909.06V3955.87H6942.8L6942.8 3915.78H6929.29V4006.22H6942.8V3969.12L6977.99 3969.12V3989.64V3996.62V4055.56V4062.54L6977.99 4083.05H6942.8L6942.8 4045.96H6929.29V4136.51H6942.8V4096.42H6977.99V4105.01V4204.71V4213.31H6942.8L6942.8 4173.22H6929.29V4263.77H6942.8L6942.8 4226.68H6977.99V4247.2V4254.18V4313.12V4320.09V4340.61H6942.8V4303.52H6929.29V4393.96H6942.8L6942.8 4353.87L6977.99 4353.86V4470.89L6942.8 4470.89L6942.8 4430.79L6929.29 4430.79V4521.43H6942.8V4484.33L6977.99 4484.33V4506.42V4576.2V4591.67L6977.99 4601H6932.65H6907.01V4570.69H6947.93V4559.05H6844.86L6844.86 4570.69L6891.4 4570.69L6891.4 4601L6755.56 4601V4570.69L6802.1 4570.69V4559.05H6697.12V4570.69H6740.18L6740.18 4601H6716.36H6708.26H6639.84H6631.74L6607.93 4600.99V4570.69L6650.98 4570.69V4559.05H6545.88V4570.69H6592.41L6592.41 4601H6582.44H6466.7H6456.72V4570.69L6503.26 4570.69V4559.05H6398.15V4570.69L6441.2 4570.69V4601H6417.39H6409.29H6340.87H6332.77H6308.95V4570.69H6352.01V4559.05H6247.03V4570.69L6293.57 4570.69L6293.57 4601H6157.73L6157.73 4570.69L6204.27 4570.69V4559.05H6099.06V4570.69H6142.12L6142.12 4601H6116.48H6035.49H6009.85V4570.69H6052.91V4559.05H5947.7V4570.69L5994.24 4570.69V4601L5858.4 4601V4570.69L5904.94 4570.69L5904.94 4559.05H5799.96V4570.69H5843.02V4601H5819.21H5811.1H5796.63H5753.13H5738.65H5730.55H5706.74V4570.69H5749.8V4559.05H5644.81L5644.82 4570.69L5691.35 4570.69V4601L5555.52 4601V4570.69L5602.06 4570.69V4559.05H5496.85V4570.69H5539.91V4601H5514.27H5433.27H5407.63L5407.63 4570.69H5450.69V4559.05H5345.48L5345.48 4570.69L5392.03 4570.69L5392.02 4601H5256.18L5256.18 4570.69L5302.72 4570.69V4559.05H5197.74L5197.74 4570.69H5240.8V4601H5216.98H5208.88H5135.16H5134.09H5108.45L5108.45 4570.69H5151.51V4559.05H5046.3V4570.69H5092.84V4601H4957L4957 4570.69L5003.54 4570.69V4559.05H4898.56V4570.69L4941.62 4570.69L4941.62 4601L4917.81 4601L4909.7 4601H4841.29L4833.19 4600.99L4809.37 4601L4809.37 4570.69L4852.43 4570.69V4559.05H4747.32L4747.32 4570.69H4793.86L4793.86 4601H4783.89L4668.15 4601L4658.18 4601V4570.69H4704.72V4559.05H4599.61L4599.61 4570.69H4642.66L4642.66 4600.99H4626.28L4618.85 4600.99H4610.75H4537.67H4529.57H4522.15H4505.76L4505.76 4570.69H4548.81V4559.05H4443.71V4570.69H4490.24L4490.25 4601L4480.28 4600.99L4364.53 4601H4354.57V4570.69L4401.11 4570.69V4559.05H4296L4296 4570.69L4339.05 4570.68L4339.05 4600.99H4315.24H4307.14H4238.72L4230.62 4600.99L4206.8 4600.99L4206.8 4570.68L4249.86 4570.69V4559.05H4144.88L4144.88 4570.69H4191.42V4601L4055.58 4601V4570.69L4102.13 4570.69V4559.05H3996.92V4570.69H4039.98L4039.97 4600.99H4014.34H3933.34H3907.7V4570.69H3950.76V4559.05H3845.55L3845.55 4570.69L3892.09 4570.69L3892.09 4600.99L3756.25 4601V4570.69L3802.79 4570.69V4559.05H3697.81V4570.68H3740.87L3740.87 4600.99H3717.05H3708.95H3640.53H3632.43L3608.62 4600.99L3608.62 4570.68L3651.68 4570.68V4559.05H3546.57V4570.69H3593.11L3593.11 4600.99H3583.13H3467.4H3457.42V4570.69L3503.95 4570.69V4559.05H3398.85V4570.68L3441.9 4570.68V4600.99H3418.08H3409.98H3341.56H3333.46H3309.64V4570.68H3352.7V4559.05H3247.72V4570.69L3294.26 4570.69L3294.26 4600.99H3158.42L3158.42 4570.69L3204.97 4570.69V4559.05H3099.76V4570.69H3142.82L3142.82 4600.99H3117.18H3036.18H3010.54V4570.69H3053.6V4559.05H2948.39V4570.69L2994.94 4570.69V4600.99L2859.1 4600.99V4570.69L2905.64 4570.69L2905.64 4559.05H2800.66V4570.68H2843.71V4600.99H2819.9H2811.8H2797.32H2753.82H2739.35H2731.25H2707.43V4570.68H2750.49V4559.05H2645.51L2645.51 4570.69L2692.05 4570.69V4600.99L2556.21 4600.99V4570.69L2602.75 4570.69L2602.75 4559.05H2497.54V4570.69H2540.6V4600.99H2514.98H2433.98H2408.34L2408.34 4570.69H2451.4V4559.05H2346.19L2346.19 4570.69L2392.73 4570.69L2392.73 4600.99H2256.89L2256.89 4570.69L2303.43 4570.69V4559.05H2198.45L2198.45 4570.68H2241.51L2241.51 4600.99H2217.69H2209.59H2135.87H2126.69H2101.05L2101.05 4570.69H2144.11V4559.05H2038.9V4570.69H2085.45V4600.99H1949.6L1949.61 4570.69L1996.15 4570.69V4559.05H1891.16V4570.68L1934.22 4570.68L1934.22 4600.99L1910.41 4600.99L1902.31 4600.99H1833.89L1825.79 4600.99L1801.98 4600.99L1801.98 4570.68L1845.03 4570.68V4559.05H1739.92L1739.92 4570.69H1786.46L1786.46 4600.99H1776.49L1660.75 4600.99L1650.78 4600.99L1650.78 4570.69H1697.32V4559.05H1592.22L1592.21 4570.68H1635.27L1635.27 4600.99H1618.88L1611.46 4600.99H1603.35H1530.28H1522.18H1514.75H1498.36L1498.37 4570.68H1541.42V4559.04H1436.31V4570.68H1482.85L1482.85 4600.99L1472.88 4600.99L1357.14 4600.99H1347.17V4570.68L1393.71 4570.68V4559.04H1288.61L1288.6 4570.68L1331.66 4570.68L1331.66 4600.99H1307.85H1299.75H1231.33L1223.23 4600.99L1199.41 4600.99L1199.41 4570.68L1242.47 4570.68V4559.04H1137.49L1137.49 4570.68H1184.03V4600.99L1048.19 4600.99V4570.68L1094.73 4570.68L1094.73 4559.04H989.521V4570.68H1032.58L1032.58 4600.99H1006.94H925.946H900.305V4570.68H943.365V4559.04H838.155L838.154 4570.68L884.695 4570.68L884.696 4600.99L748.857 4600.99V4570.68L795.397 4570.68V4559.04H690.415V4570.68H733.472L733.474 4600.99H709.658H701.557H633.138H625.037L601.221 4600.98L601.223 4570.68L644.28 4570.68V4559.04H539.172V4570.68H585.71L585.711 4600.99H575.733H460H450.02L450.023 4570.68L496.562 4570.68V4559.04H391.453V4570.68L434.506 4570.68L434.511 4600.99H410.694H402.592H334.177H326.078H302.258L302.261 4570.68H345.319L345.317 4559.04H240.337V4570.68L286.877 4570.68L286.878 4600.99H151.037L151.036 4570.68L197.582 4570.68L197.578 4559.04H92.3674V4570.68H135.428L135.427 4600.99H109.789H28.7924L10.8374 4600.99Z" fill="#FFEC00"/>
<path fill-rule="evenodd" clip-rule="evenodd" d="M10.8355 13.84V24.8009V94.5777V105.539H24.361V68.1415V66.2991L59.5496 66.3003V181.939L24.361 181.937L24.3592 142.613L10.8381 142.614V234.637H24.3584L24.3592 195.313H59.55L59.5463 310.751L24.3618 310.75L24.3599 271.514H10.8402L10.8365 280.903L10.8402 287.882L10.8383 346.822V353.803L10.842 363.19L24.3618 363.191L24.3636 323.956L59.5481 323.952L59.5518 439.501L24.3603 439.503L24.361 400.18H10.84V492.074H24.361V452.749L59.5503 452.752L59.5485 568.301L24.364 568.297L24.3621 529.064L10.8424 529.064L10.8387 538.45V545.431V604.372V611.351L10.8424 620.738L24.3621 620.74L24.364 581.503H59.5485L59.5503 696.94H24.361V657.618H10.84V749.641H24.361L24.3629 710.316H59.55L59.5515 825.953L24.3629 825.955V824.111V786.714L10.8374 786.712V797.676V867.451L10.8393 878.412H24.3625V841.015V839.173L59.5511 839.174V954.812L24.3625 954.81L24.3607 915.487H10.8374L10.8393 1007.51H24.3595L24.3603 968.186L59.5496 968.187L59.5489 1083.62L24.364 1083.62L24.3603 1044.39L10.8413 1044.39L10.8376 1053.78V1060.76V1119.7L10.8394 1126.68V1136.06L24.3605 1136.06L24.3623 1096.83L59.5487 1096.83L59.5494 1212.38L24.3601 1212.38V1173.05L10.8391 1173.06L10.8404 1264.94L24.3601 1264.94V1225.62H59.5494L59.5487 1341.17L24.3623 1341.16L24.3605 1301.93L10.8394 1301.93L10.8376 1311.32V1318.3V1381.25V1388.23L10.8413 1397.62L24.361 1397.62L24.3629 1358.38L59.5474 1358.38L59.5492 1473.93L24.3599 1473.93V1434.61H10.8389V1526.49H24.3599V1487.17L59.5507 1487.17L59.5489 1602.72L24.3625 1602.71L24.3607 1563.48L10.8409 1563.48L10.8372 1572.87V1579.85V1638.79L10.8391 1645.77V1655.16H24.3601L24.362 1615.92L59.5483 1615.92V1731.36H24.3575L24.3594 1692.03L10.8383 1692.04L10.8365 1784.06H24.359L24.3627 1744.73L59.5498 1744.73L59.5513 1860.37L24.3627 1860.37V1858.53V1821.13H10.8372L10.8391 1832.09L10.8383 1887.27L10.8391 1903.51L10.8353 1910.49L10.8391 1919.88L24.3588 1919.88L24.3607 1880.64L59.5451 1880.64L59.5489 1996.08H24.3581L24.3573 1956.76H10.837V2048.78L24.3581 2048.78L24.3599 2009.46L59.5485 2009.45V2125.09H24.3599V2123.25V2085.85H10.8344V2096.81V2166.59V2177.55H24.3599V2140.15V2138.31H59.5485V2253.95H24.3599L24.3581 2214.62H10.8348L10.8366 2306.64L24.3577 2306.64L24.3569 2267.32H59.547L59.5451 2382.76L24.3607 2382.76L24.3588 2343.52L10.8391 2343.52L10.8353 2352.91V2359.89V2372.36V2409.83V2422.3V2429.28L10.8391 2438.67H24.3588L24.3607 2399.43H59.5451L59.547 2514.87H24.3569L24.3577 2475.55L10.8366 2475.55L10.8348 2567.57H24.3581L24.3599 2528.25H59.5485V2643.88H24.3599V2642.04V2604.64H10.8344V2615.6V2685.38V2696.34H24.3599V2658.95V2657.1L59.5485 2657.1V2772.74H24.3599L24.3581 2733.42L10.837 2733.42V2825.44H24.3573L24.3581 2786.12H59.5489L59.5451 2901.56L24.3607 2901.55L24.3588 2862.32H10.8391L10.8353 2871.71L10.8391 2878.69L10.8372 2937.63V2944.61L10.8409 2953.99L24.3607 2954L24.3625 2914.76L59.547 2914.76L59.5507 3030.31L24.3592 3030.31L24.3599 2990.99H10.8389V3082.88H24.3599V3043.55H59.5492L59.5474 3159.1H24.3629L24.361 3119.87L10.8413 3119.87L10.8376 3129.26V3136.24V3195.18V3202.16L10.8413 3211.54L24.361 3211.55L24.3629 3172.31H59.5474L59.5492 3287.75H24.3599V3248.42H10.8389V3340.45H24.3599L24.3618 3301.12H59.5489L59.5503 3416.76L24.3618 3416.76V3414.92V3377.52L10.8363 3377.52V3388.48V3458.26L10.8381 3469.22H24.3614V3431.82V3429.98L59.55 3429.98V3545.62L24.3614 3545.62L24.3595 3506.29H10.8363L10.8381 3598.32H24.3584L24.3592 3558.99L59.5485 3558.99L59.5478 3674.43L24.3629 3674.43L24.3592 3635.19H10.8402L10.8365 3644.58V3651.56V3710.5L10.8383 3717.48V3726.86H24.3594L24.3612 3687.63H59.5476L59.5483 3803.18H24.359V3763.86L10.838 3763.86L10.8393 3855.74L24.359 3855.74V3816.42H59.5483L59.5476 3931.97H24.3612L24.3594 3892.73H10.8383L10.8365 3902.12V3909.1V3972.05V3979.03L10.8402 3988.42L24.3599 3988.42L24.3618 3949.18H59.5463L59.5481 4064.73L24.3588 4064.74V4025.41H10.8378V4117.3H24.3588V4077.97H59.5496L59.5478 4193.52H24.3614L24.3595 4154.28H10.8398L10.8361 4163.67V4170.65V4229.59L10.838 4236.57V4245.96H24.359L24.3609 4206.72L59.5472 4206.72V4322.16H24.3564L24.3582 4282.84L10.8372 4282.84L10.8353 4374.86H24.3579L24.3616 4335.54H59.5487L59.5502 4451.17L24.3616 4451.18V4449.33V4411.94H10.8361L10.838 4422.9L10.8376 4472.68L10.838 4487.33L10.8372 4488.93V4494.83L10.8391 4503.7L24.3588 4503.7L24.3607 4464.46L59.5451 4464.46L59.5489 4579.9H24.3581L24.3573 4540.58H10.837V4591.82L28.7917 4591.66H109.788H122.512V4580.01H79.1016H76.9623L76.9637 4549.7H211.197L211.195 4580.01L165.547 4580.01L165.548 4591.65H272.369V4580.01L226.721 4580.01V4549.7H360.722L360.72 4580L315.175 4580.01V4591.65H326.074H334.175L402.593 4591.65H410.696H421.593L421.594 4580.01L376.05 4580.01L376.047 4549.7H510.176L510.177 4580.01L464.532 4580.01V4591.66H571.203V4580.01H525.553L525.557 4549.7H659.685L659.681 4580.01L614.139 4580.01L614.14 4591.65H625.035H633.138H701.557H709.657H720.555L720.557 4580.01L675.011 4580.01V4549.7H809.01V4580.01H763.365V4591.66H870.184V4580.01L824.536 4580.01V4549.7L958.768 4549.7L958.769 4580.01H956.63H913.219L913.217 4591.66H925.943H1006.94L1019.66 4591.66V4580.01H976.252H974.113L974.116 4549.7H1108.35L1108.35 4580.01L1062.7 4580.01V4591.66L1169.52 4591.66V4580.01L1123.87 4580.01L1123.87 4549.7L1257.87 4549.71L1257.87 4580.01H1212.33L1212.33 4591.65H1223.22H1231.33H1299.74L1307.85 4591.65H1318.74L1318.75 4580L1273.2 4580L1273.2 4549.7L1407.33 4549.7L1407.33 4580H1361.68L1361.68 4591.65L1468.34 4591.65L1468.34 4580H1422.7V4549.7L1556.83 4549.7L1556.82 4580L1511.28 4580L1511.28 4591.65L1522.18 4591.65H1530.28H1603.35H1611.46H1622.35L1622.35 4580.01L1576.81 4580.01L1576.81 4549.7H1710.94L1710.94 4580.01H1665.29V4591.66H1771.95V4580.01H1726.3L1726.31 4549.7H1860.44V4580.01L1814.89 4580.01V4591.65H1825.79H1833.89H1902.31L1910.41 4591.65H1921.31V4580.01L1875.76 4580L1875.76 4549.7H2009.76V4580.01L1964.12 4580.01L1964.12 4591.65L2070.93 4591.65V4580.01H2025.29V4549.7L2159.52 4549.7L2159.52 4580.01H2157.39H2113.97V4591.65L2126.7 4591.65H2187.96H2209.6H2217.7H2228.6L2228.6 4580.01L2183.06 4580.01L2183.05 4549.71H2317.06V4580.01L2271.41 4580.01V4591.66H2378.23L2378.23 4580.01L2332.58 4580.01V4549.71H2466.81L2466.82 4580.01H2464.68H2421.27V4591.66H2433.99H2514.99H2527.71V4580.01H2484.3H2482.16V4549.71H2616.39V4580.01L2570.74 4580.01V4591.66L2677.56 4591.66V4580.01L2631.91 4580.01V4549.71H2765.91V4580.01L2720.37 4580.01L2720.37 4591.65H2731.27H2739.37H2753.85H2797.34H2811.82H2819.92H2830.82V4580.01L2785.27 4580.01V4549.71H2919.27V4580.01L2873.63 4580.01L2873.63 4591.66L2980.45 4591.66V4580.01L2934.8 4580.01V4549.71H3069.03V4580.01H3066.89H3023.48V4591.66H3036.2H3117.2H3129.92V4580.01H3086.51H3084.37L3084.38 4549.71H3218.61V4580.01L3172.96 4580.01L3172.96 4591.66H3279.78V4580.01L3234.14 4580.01V4549.71H3368.14L3368.14 4580.01L3322.59 4580.01V4591.65H3333.49H3341.59L3410.01 4591.65H3418.11H3429.01L3429.01 4580.01L3383.47 4580.01V4549.71H3517.59L3517.6 4580.02L3471.95 4580.01V4591.66H3578.62V4580.01H3532.97V4549.71H3667.09V4580.01L3621.55 4580.01L3621.55 4591.66H3632.45H3640.55H3708.97H3717.07H3727.97V4580.01L3682.42 4580.01V4549.71H3816.42V4580.01H3770.77V4591.66H3877.59V4580.01L3831.94 4580.01V4549.71L3966.18 4549.71L3966.18 4580.01H3964.04H3920.63L3920.63 4591.66H3933.35H4014.35L4027.07 4591.66V4580.01H3983.66H3981.52V4549.71H4115.75L4115.75 4580.01L4070.11 4580.01V4591.66L4176.92 4591.66V4580.02L4131.28 4580.01L4131.28 4549.71L4265.28 4549.71L4265.28 4580.01H4219.73V4591.65H4230.63H4238.73H4307.15L4315.25 4591.65H4326.14V4580.01L4280.6 4580.01V4549.7L4414.73 4549.7V4580.01H4369.08L4369.08 4591.65L4475.74 4591.65L4475.74 4580.01H4430.1V4549.7L4564.23 4549.7V4580.01L4518.68 4580.01V4591.65L4529.58 4591.65H4537.68H4610.76H4618.86H4629.75L4629.75 4580.01L4584.21 4580.01V4549.71H4718.34L4718.34 4580.01H4672.69V4591.66H4779.35V4580.01H4733.71V4549.71L4867.83 4549.71V4580.01L4822.29 4580.01V4591.66H4833.19H4841.29H4909.71L4917.81 4591.66H4928.71V4580.01L4883.16 4580.01L4883.16 4549.71H5017.16V4580.01H4971.51L4971.51 4591.66L5078.33 4591.66V4580.01H5032.69V4549.71L5166.92 4549.71L5166.92 4580.01H5164.78H5121.37V4591.66L5134.1 4591.66L5189.37 4591.66L5208.89 4591.66L5210.75 4591.66H5217.6L5227.89 4591.66L5227.89 4580.02L5182.35 4580.02V4549.71H5316.35V4580.02L5270.7 4580.02V4591.67H5377.52L5377.52 4580.02L5331.87 4580.02V4549.71H5466.11V4580.02H5463.97H5420.56V4591.67H5433.28H5514.28H5527V4580.02H5483.59H5481.45V4549.71H5615.68V4580.02L5570.03 4580.02V4591.67L5676.85 4591.67V4580.02L5631.2 4580.02V4549.72H5765.2V4580.02L5719.66 4580.02V4591.66H5730.55H5738.66H5753.13H5796.63H5811.11H5819.21H5830.11V4580.02L5784.56 4580.02V4549.72H5918.56V4580.02L5872.92 4580.02L5872.92 4591.67L5979.74 4591.67V4580.02L5934.09 4580.02V4549.71H6068.32V4580.02H6066.18H6022.77V4591.67H6035.49H6116.49H6129.21V4580.02H6085.8H6083.66L6083.66 4549.71H6217.9V4580.02L6172.25 4580.02L6172.25 4591.67H6279.07V4580.02L6233.42 4580.02V4549.71H6367.42L6367.42 4580.02L6321.88 4580.02V4591.66H6332.78H6340.88L6409.29 4591.66H6417.4H6428.29L6428.3 4580.02L6382.75 4580.02V4549.72H6516.88L6516.88 4580.02L6471.24 4580.02V4591.67H6577.91V4580.02H6532.26V4549.72H6666.39V4580.02L6620.84 4580.02L6620.85 4591.66H6631.74H6639.84H6708.26H6716.36H6727.26V4580.02L6681.71 4580.02V4549.72H6815.71V4580.02H6770.07V4591.67H6876.89V4580.02L6831.24 4580.02V4549.72L6963.33 4549.72L6963.33 4580.02H6961.19H6919.92L6919.92 4591.67H6932.65H6967.17C6967.15 4590.51 6967.15 4589.05 6967.15 4587.16V4576.2V4506.42V4495.46H6953.63V4532.86V4534.7L6918.44 4534.7V4419.06H6953.63V4458.39L6967.15 4458.39V4366.36H6953.63L6953.63 4405.69H6918.44V4290.25L6953.62 4290.25V4329.49H6967.14V4320.1V4313.12V4254.18V4247.2V4237.81L6953.62 4237.81V4277.04H6918.44V4161.49L6953.63 4161.49L6953.63 4200.81H6967.15V4108.92H6953.63V4148.25H6918.44V4032.7H6953.62V4071.93L6967.14 4071.93V4062.54V4055.56V3996.62V3989.64V3980.26H6953.62V4019.49H6918.44V3904.06H6953.63V3943.38H6967.15V3851.36H6953.63V3890.68H6918.44L6918.44 3775.04L6953.63 3775.04V3776.89V3814.28L6967.15 3814.28V3803.32V3733.55V3722.58H6953.63V3759.98V3761.82L6918.44 3761.82V3646.18L6953.63 3646.19V3685.51H6967.15V3593.49H6953.63L6953.63 3632.81L6918.44 3632.81L6918.44 3517.37L6953.63 3517.37V3556.61H6967.15V3547.22V3540.24V3481.3V3474.32V3464.94L6953.63 3464.94V3504.17H6918.44L6918.44 3388.62H6953.63V3427.93L6967.15 3427.93L6967.15 3336.05L6953.63 3336.05V3375.37H6918.44L6918.44 3259.82H6953.63V3299.06L6967.15 3299.05V3289.67V3282.69V3219.73V3212.75V3203.37L6953.63 3203.37V3242.6H6918.44V3127.05L6953.63 3127.05V3166.37H6967.15V3074.49H6953.63V3113.81H6918.44V2998.26H6953.63V3037.5L6967.15 3037.5V3028.11V3021.13V2962.19V2955.21V2945.82H6953.63V2985.06L6918.44 2985.06V2869.62H6953.63V2908.94L6967.15 2908.94V2816.92H6953.63V2856.25L6918.44 2856.25L6918.44 2740.61L6953.63 2740.61V2742.45V2779.85H6967.16V2768.89L6967.16 2713.71L6967.16 2697.47V2690.49V2681.1L6953.64 2681.1V2720.34L6918.45 2720.34V2604.9H6953.64L6953.64 2644.22H6967.16V2552.2L6953.64 2552.2V2591.52H6918.45V2475.89L6953.64 2475.88V2477.73V2515.12H6967.17V2504.16V2434.39V2423.42H6953.64V2460.82V2462.66H6918.45V2347.03H6953.64V2386.35H6967.17V2294.33L6953.64 2294.33L6953.64 2333.65H6918.45V2218.22L6953.64 2218.22V2257.45L6967.16 2257.45V2248.06V2241.08V2228.61V2191.14V2178.67V2171.69V2162.3H6953.64V2201.54H6918.45V2086.1H6953.64L6953.64 2125.42L6967.17 2125.42V2033.4H6953.64V2072.73H6918.45V1957.09H6953.64V1958.93V1996.33H6967.17V1985.37V1915.59V1904.63H6953.64V1942.03V1943.87L6918.45 1943.87V1828.23L6953.64 1828.23V1867.56L6967.16 1867.56V1775.53H6953.64L6953.64 1814.86H6918.45V1699.43L6953.64 1699.43V1738.67H6967.16V1729.28V1722.3V1663.36V1656.38V1646.99L6953.64 1646.99V1686.23L6918.45 1686.23V1570.68L6953.64 1570.68L6953.64 1610H6967.16V1518.11H6953.64V1557.43L6918.45 1557.43V1441.88L6953.64 1441.88V1481.12L6967.16 1481.12V1471.73V1464.75V1405.81V1398.83V1389.44L6953.64 1389.44V1428.68H6918.45V1313.24H6953.64V1352.56H6967.16V1260.54H6953.64V1299.87H6918.46L6918.45 1184.23L6953.64 1184.23V1186.07V1223.47L6967.17 1223.47V1212.51V1142.73V1131.77H6953.64V1169.17V1171.01L6918.46 1171.01V1055.37L6953.64 1055.37V1094.69H6967.17V1002.67H6953.65L6953.65 1042L6918.46 1041.99L6918.46 926.557L6953.64 926.558V965.795L6967.16 965.791V956.405V949.426V890.485V883.505V874.118L6953.64 874.116V913.351L6918.45 913.355L6918.45 797.806L6953.64 797.804V837.128L6967.16 837.127L6967.16 745.244L6953.64 745.243V784.566H6918.45L6918.45 669.016L6953.64 669.02V708.256L6967.16 708.252V698.865V691.886V628.934V621.953V612.567L6953.64 612.566V651.799L6918.46 651.803V536.254L6953.65 536.252V575.578H6967.17V483.691H6953.65V523.016L6918.46 523.012V407.464L6953.64 407.468V446.703L6967.16 446.701V437.314V430.335V371.393V364.414V355.027H6953.64V394.263L6918.45 394.264V278.824H6953.65V318.148L6967.17 318.146V226.126H6953.64V265.448L6918.46 265.45L6918.46 149.812L6953.64 149.811V151.652V189.05H6967.17V178.088L6967.17 128.306L6967.17 113.655L6967.17 112.053V106.157L6967.17 97.289L6953.65 97.288V136.523L6918.47 136.525V21.087H6953.66L6953.66 60.4105H6967.18V9.19415L6949.22 9.33068H6868.23H6855.5V20.979H6898.91H6901.05L6901.05 51.2844H6766.82V20.979L6812.47 20.9775L6812.47 9.33226H6705.64V20.9765L6751.28 20.9775V51.2844L6617.28 51.2805L6617.28 20.9787L6662.83 20.9771V9.33286L6651.93 9.32891L6643.83 9.33089L6575.41 9.3293H6567.31L6556.41 9.33128L6556.41 20.9755L6601.95 20.9771V51.2789L6467.82 51.2829L6467.82 20.9749L6513.47 20.9759V9.33068H6406.8V20.9759H6452.45V51.2819L6318.32 51.2799V20.9781L6363.86 20.9765L6363.86 9.33226L6352.97 9.33029H6344.86H6276.44H6268.34L6257.45 9.33226V20.9765L6302.99 20.9781V51.2799L6168.99 51.2819V20.9759H6214.64V9.33068H6107.82V20.9759L6153.47 20.9775V51.2819L6019.23 51.2829L6019.23 20.9775H6021.37H6064.78L6064.79 9.32911H6052.06H5971.06L5958.34 9.33068V20.9775H6001.75H6003.89V51.2829H5869.66L5869.66 20.9775L5915.31 20.9759V9.32911L5808.49 9.33068V20.9749L5854.13 20.9759L5854.13 51.2819L5720.13 51.2809L5720.13 20.9785L5765.68 20.9745V9.33128L5754.79 9.3293H5746.68H5678.26L5670.16 9.33089H5659.27V20.9761L5704.81 20.9777V51.2811L5570.68 51.2821V20.9761H5616.33L5616.33 9.33089L5509.67 9.33187L5509.67 20.9761H5555.32V51.2821L5421.19 51.2811V20.9777L5466.73 20.9761V9.33089L5455.83 9.3293H5447.73H5374.66H5366.55L5355.66 9.33128L5355.66 20.9755L5401.2 20.9771V51.2789L5267.07 51.2809L5267.07 20.9749H5312.72V9.3297H5206.05V20.9749H5251.7V51.2819L5117.57 51.2799V20.9765L5163.12 20.9749V9.33068L5152.22 9.32871H5144.12H5075.7L5067.6 9.33029H5056.7V20.9755L5102.25 20.9771L5102.25 51.2805H4968.25V20.9735L5013.89 20.9755L5013.89 9.33029L4907.07 9.32871V20.9745L4952.72 20.9765V51.2809L4818.49 51.2819L4818.48 20.9765H4820.62H4864.03V9.32812L4851.31 9.3297L4790.04 9.3295L4768.41 9.3297L4760.31 9.32772L4749.41 9.33168L4749.41 20.9759L4794.95 20.9775V51.2793L4660.95 51.2833V20.9763L4706.6 20.9753V9.33108H4599.78L4599.78 20.9763L4645.42 20.9779V51.2833H4511.19V20.9779H4513.33H4556.74V9.3295H4544.02H4463.02H4450.3V20.9779H4493.71H4495.85V51.2833H4361.62V20.9779L4407.27 20.9763V9.3295L4300.45 9.33108V20.9763L4346.1 20.9753V51.2823L4212.1 51.2803V20.9785L4257.64 20.9769V9.33266L4246.74 9.33068H4238.64H4224.16H4180.67H4166.19H4158.09L4147.19 9.33266V20.9769L4192.74 20.9785V51.2803L4058.74 51.2823V20.9753L4104.38 20.9763L4104.38 9.33108L3997.56 9.3295V20.9763L4043.21 20.9779V51.2833H3908.98V20.9779H3911.12H3954.53V9.3295H3941.81H3860.81H3848.09V20.9779H3891.5H3893.64L3893.64 51.2833H3759.4V20.9779L3805.05 20.9763L3805.05 9.33108H3698.23V20.9753L3743.88 20.9763V51.2833L3609.88 51.2793L3609.88 20.9775L3655.42 20.9759V9.33168L3644.52 9.32772L3636.42 9.3297L3568 9.32812H3559.9L3549 9.3301L3549 20.9743L3594.55 20.9759V51.2777L3460.42 51.2817L3460.42 20.9737L3506.06 20.9747V9.3295H3399.39V20.9747H3445.04V51.2807L3310.91 51.2787V20.9769L3356.45 20.9753L3356.45 9.33108L3345.56 9.32911H3337.46H3269.04H3260.94L3250.04 9.33108L3250.04 20.9753L3295.58 20.9769V51.2787L3161.58 51.2807V20.9747H3207.23V9.3295H3100.41V20.9747L3146.06 20.9763V51.2807L3011.83 51.2817L3011.82 20.9763H3013.96H3057.37L3057.38 9.32792H3044.65H2963.66L2950.93 9.3295V20.9763H2994.34H2996.48V51.2817H2862.25L2862.25 20.9763L2907.9 20.9747V9.32792L2801.08 9.3295V20.9737L2846.72 20.9747L2846.72 51.2807L2712.72 51.2797L2712.72 20.9773L2758.27 20.9733V9.3301L2747.38 9.32812H2739.27H2670.86L2662.75 9.3297H2651.86L2651.86 20.9749L2697.4 20.9765V51.2799L2563.27 51.2809V20.9749H2608.92L2608.92 9.3297L2502.26 9.33068L2502.26 20.9749H2547.91V51.2809L2413.77 51.2799V20.9765L2459.32 20.9749L2459.32 9.3297L2448.42 9.32812H2440.32H2367.24H2359.14L2348.25 9.3301L2348.24 20.9743L2393.79 20.9759V51.2777L2259.66 51.2797L2259.65 20.9737H2305.3V9.32851H2198.64V20.9737H2244.29V51.2807L2110.16 51.2787V20.9753L2155.7 20.9737V9.3295L2144.81 9.32753H2136.71H2068.29L2060.19 9.32911H2049.29V20.9743L2094.83 20.9759L2094.84 51.2793H1960.83V20.9723L2006.48 20.9743L2006.47 9.32911L1899.66 9.32753V20.9733L1945.3 20.9753V51.2797L1811.07 51.2807L1811.07 20.9753H1813.21H1856.62V9.32693L1843.89 9.32851L1788.62 9.32832L1769.1 9.32851L1767.24 9.32792H1760.39L1750.1 9.33029L1750.1 20.9745L1795.64 20.9761V51.2779L1661.64 51.2819V20.9749L1707.29 20.9739V9.3297H1600.47L1600.47 20.9749L1646.12 20.9765L1646.12 51.2819H1511.88L1511.88 20.9765H1514.02H1557.43V9.32812H1544.71H1463.71H1450.99V20.9765H1494.4H1496.54L1496.53 51.2819H1362.31V20.9765L1407.96 20.9749V9.32812L1301.14 9.3297L1301.14 20.9749L1346.79 20.9739V51.2809L1212.79 51.2789L1212.79 20.9771L1258.34 20.9755L1258.33 9.33128L1247.44 9.3293H1239.33H1224.86H1181.36H1166.88H1158.78L1147.88 9.33128L1147.88 20.9755L1193.42 20.9771L1193.43 51.2789L1059.43 51.2809V20.9739L1105.07 20.9749L1105.07 9.3297L998.254 9.32812V20.9749L1043.9 20.9765V51.2819H909.672L909.669 20.9765H911.807H955.218V9.32812H942.495H861.498H848.775V20.9765H892.185H894.324L894.323 51.2819H760.089L760.091 20.9765L805.739 20.9749L805.738 9.3297H698.917V20.9739L744.566 20.9749V51.2819L610.564 51.2779L610.566 20.9761L656.111 20.9745V9.33029L645.212 9.32635L637.111 9.32832L568.693 9.32674H560.59L549.693 9.32871L549.692 20.9729L595.236 20.9745L595.24 51.2763L461.11 51.2803L461.109 20.9723L506.754 20.9733V9.32812H400.084V20.9733H445.733L445.729 51.2793L311.601 51.2773L311.605 20.9755L357.148 20.9739L357.146 9.3297L346.251 9.32772H338.149H269.73H261.629L250.731 9.3297L250.729 20.9739L296.276 20.9755V51.2773L162.276 51.2793V20.9733H207.921V9.32812H101.103V20.9733L146.75 20.9749V51.2793L15.7704 51.2803L15.7693 20.9749H17.9082H58.0677L58.0692 9.32654H45.3431H10.8171C10.8264 10.4859 10.8357 11.9479 10.8357 13.8358L10.8355 13.84ZM10.8374 4600.99L0.00446087 4600.99V4528.08L35.1938 4528.08L35.1945 4568.18H48.7102L48.7064 4477.74L35.1956 4477.74V4514.83H0.00409208V4494.31V4487.34V4423.83V4422.9V4400.82L35.1915 4400.82L35.1934 4437.91H48.7091V4347.28H35.1934V4387.37H0.00334742V4270.35L35.1949 4270.35L35.1934 4310.44H48.7105L48.705 4220H35.1927L35.1942 4257.09L0.00260276 4257.1L0.00148932 4241.71V4234.84L0.00260276 4229.6V4170.66L0.00409208 4163.68L0.00260276 4143.17L35.1942 4143.17L35.1927 4180.26H48.705L48.7087 4089.71L35.193 4089.71V4129.8L0.00297155 4129.8V4121.22L0.00446087 4021.51L0.00297155 4012.92H35.193V4053.01H48.7087L48.705 3962.46L35.1942 3962.46V3999.55L0.00409208 3999.55V3987.2V3983.83L0.00520553 3979.04V3972.06V3909.1V3902.13V3895.73V3881.61L35.1953 3881.61V3918.7H48.7076L48.7113 3828.16H35.1956V3868.25L0.00557431 3868.25L0.00706363 3859.66L0.00557431 3759.95V3751.36H35.1971L35.1956 3791.46H48.7113L48.7076 3700.91L35.1953 3700.91L35.1967 3738L0.00520553 3738V3717.48V3710.51V3651.56L0.00669484 3644.59L0.00520553 3624.07L35.1967 3624.07L35.1953 3661.16H48.7076L48.7113 3570.73L35.1956 3570.73V3610.82H0.00446087V3581.56L0.00557431 3493.8H35.1949L35.1967 3533.89H48.7109V3443.26H35.1953L35.1897 3480.35L0.00446087 3480.35V3458.26V3388.49V3366.4H35.1919L35.1938 3403.5H48.7094V3312.86L35.1953 3312.86L35.1938 3352.95L0.00371621 3352.95L0.00260276 3282.74V3235.93H35.1938L35.193 3276.02H48.7094L48.7057 3185.59H35.1934V3222.68L0.00334742 3222.68V3202.16V3195.18V3136.24V3129.26L0.00482965 3108.75L35.1949 3108.75L35.1934 3145.84H48.705L48.7087 3055.29H35.193V3095.38L0.00297155 3095.39V3086.79V2987.09V2978.49H35.1945L35.193 3018.58H48.7087L48.705 2928.03H35.1927L35.1942 2965.12H0.00260276V2944.6V2937.62V2878.69V2871.71V2851.19H35.1942V2888.28L48.705 2888.28L48.7087 2797.84H35.193L35.1923 2837.93L0.00297155 2837.94V2720.91L35.193 2720.91L35.1945 2761.01L48.7087 2761.01V2670.37H35.1923L35.1886 2707.47L0.00334742 2707.47V2685.38V2615.6V2593.51H35.1908L35.1927 2630.61H48.7083V2539.97H35.1942L35.1927 2580.07H0.00260276L0.00409208 2463.05H35.1908L35.1927 2503.14L48.7083 2503.14L48.7046 2412.7H35.1938V2449.79H0.00222689V2429.28V2422.3V2409.83V2372.36V2359.89V2352.91V2332.39H35.1938V2369.48H48.7046L48.7083 2279.05L35.1927 2279.05L35.1908 2319.14H0.00409208L0.00260276 2202.12H35.1927L35.1942 2242.21L48.7083 2242.21V2151.57H35.1927L35.1908 2188.67H0.00334742V2166.58V2096.81V2074.72L35.1886 2074.72L35.1923 2111.81H48.7087V2021.18L35.1945 2021.17L35.193 2061.27L0.00297155 2061.27V1944.25L35.1923 1944.25L35.193 1984.34H48.7087L48.705 1893.9L35.1942 1893.9V1931L0.00260276 1931V1910.48V1903.5V1839.99V1832.08V1810L35.1901 1810L35.1919 1847.09H48.7076V1756.46L35.1919 1756.45V1796.55H0.0018581V1679.52L35.1934 1679.52L35.1919 1719.62H48.7091L48.7035 1629.18H35.1912L35.1927 1666.27L0.00111344 1666.27L0 1650.89V1644.01L0.00111344 1638.78V1579.84L0.00260276 1572.86L0.00111344 1552.34L35.1927 1552.35L35.1912 1589.44H48.7035L48.7072 1498.89L35.1915 1498.89V1538.98L0.00148932 1538.98V1530.39L0.00297155 1430.68L0.00148932 1422.09L35.1915 1422.1V1462.19H48.7072L48.7035 1371.64L35.1927 1371.64V1408.73L0.00260276 1408.73V1396.38V1393.01L0.00371621 1388.22V1381.24V1318.28V1311.31V1304.91V1290.79L35.1938 1290.79V1327.88H48.7061L48.7098 1237.34H35.1942V1277.43L0.00409208 1277.43L0.00557431 1268.84L0.00409208 1169.13V1160.54H35.1956L35.1942 1200.64H48.7098L48.7061 1110.09L35.1938 1110.09L35.1953 1147.18L0.00371621 1147.18V1126.66V1119.68V1060.74L0.00520553 1053.77L0.00371621 1033.25L35.1953 1033.25L35.1938 1070.34H48.7061L48.7098 979.906L35.1942 979.905V1020H0.00297155V990.742L0.00409208 902.976H35.1934L35.1953 943.071L48.7094 943.068V852.433H35.1938L35.1882 889.527L0.00297155 889.526V867.44V797.665V775.575H35.1904L35.1923 812.671H48.7079V722.035L35.1938 722.034L35.1923 762.128L0.00222689 762.129L0.00111344 691.915V645.106H35.1923L35.1915 685.2H48.7079L48.7042 594.761H35.1919V631.854L0.0018581 631.855V611.338V604.36V545.418V538.439L0.00334742 517.922L35.1934 517.924L35.1919 555.016H48.7035L48.7072 464.469H35.1915V504.56L0.00148932 504.561V495.965V396.264V387.666L35.193 387.67L35.1915 427.761H48.7072L48.7035 337.213H35.1912L35.1927 374.302L0.00111344 374.305V353.788V346.808V287.869V280.892V260.372L35.1927 260.376V297.47L48.7035 297.468L48.7072 207.03H35.1915L35.1908 247.123L0.00148932 247.124V130.1L35.1915 130.099L35.193 170.197L48.7072 170.195V79.5691H35.1908L35.1871 116.664L0.0018581 116.664V94.5775V24.8007V9.33049L0.00074466 0.00237081H45.3394H70.9806V30.3068L31.1727 30.3087V41.9482H133.13L133.132 30.3095L86.5904 30.3087L86.5889 0.00158054L222.429 0V30.3087L175.888 30.308V41.9482L280.871 41.9463V30.3093H237.813L237.812 0.0021676H261.628H269.728H338.148H346.248L370.064 0.00394382L370.062 30.3101L327.006 30.3093V41.9455L432.113 41.9494V30.3099H385.576L385.575 0.00276218H395.552H511.285H521.266L521.262 30.3107L474.724 30.3099V41.9494L579.832 41.9474V30.3105L536.78 30.3113L536.774 0.00335676H560.591H568.693H637.108H645.208H669.028L669.024 30.3113H625.966L625.968 41.9474L730.948 41.9494V30.3099L684.409 30.3091L684.407 0.00276218H820.248L820.25 30.3099L773.703 30.3107L773.705 41.9494H878.916V30.3091L835.856 30.3052L835.858 0.00237081H861.495H942.491H968.13V30.3068L925.071 30.3087V41.9482H1030.28L1030.28 30.3095L983.739 30.3087V0.00158054L1119.58 0.00335676V30.307L1073.04 30.3087L1073.04 41.9482L1178.02 41.9463V30.3101H1134.96V0.0021676H1158.78H1166.88H1181.35H1224.85H1239.33H1247.43H1271.24V30.3101H1228.19V41.9463L1333.17 41.9482L1333.17 30.3087L1286.63 30.307V0.00335676L1422.47 0.00158054V30.3087L1375.93 30.3095L1375.93 41.9482H1481.14V30.3087L1438.08 30.3068V0.00237081H1463.72H1544.71H1570.35L1570.35 30.3052L1527.29 30.3091V41.9494H1632.5L1632.5 30.3107L1585.96 30.3099L1585.96 0.00276218H1721.8L1721.8 30.3091L1675.26 30.3099V41.9494L1780.24 41.9474L1780.24 30.3113H1737.18L1737.18 0.00335676H1761H1769.1H1842.82H1843.89H1869.53L1869.53 30.3078L1826.47 30.3097V41.9492H1931.68V30.3097H1885.14V0.00256649H2020.98L2020.98 30.3105L1974.44 30.3097V41.9512L2079.42 41.9472V30.3103L2036.37 30.3111L2036.37 0.00315355L2060.18 0.00237081L2068.28 0.00315355H2136.7L2144.8 0.00492978L2168.61 0.00315355L2168.61 30.3111L2125.56 30.3103V41.9472L2230.67 41.9492L2230.67 30.3097H2184.13L2184.13 0.00256649H2194.1L2309.84 0.00434272L2319.81 0.00256649V30.3097H2273.27V41.9492L2378.38 41.9472L2378.38 30.3111H2335.32L2335.32 0.00492978L2351.71 0.00295787L2359.14 0.00374814H2367.24H2440.31H2448.41H2455.84H2472.23L2472.23 30.3109H2429.17V41.9478L2534.28 41.9498V30.3103H2487.74L2487.74 0.00315355L2497.71 0.00492978L2613.45 0.00315355H2623.42V30.3111L2576.88 30.3103V41.9498L2681.99 41.9478L2681.99 30.3109L2638.93 30.3117L2638.93 0.00374814H2662.75H2670.85H2739.27L2747.37 0.00552436L2771.18 0.00374814L2771.18 30.3117L2728.12 30.3109V41.9478L2833.1 41.9498L2833.1 30.3103H2786.56V0.00237081L2922.4 0.00315355V30.3095L2875.86 30.3111V41.9498H2981.07V30.3103L2938.01 30.3064L2938.01 0.00355245H2963.65H3044.64H3070.28V30.308L3027.22 30.3099V41.9494H3132.43L3132.43 30.3107L3085.89 30.3099L3085.89 0.00276218L3221.73 0.00118164V30.3099L3175.19 30.3091V41.9494L3280.17 41.9474V30.3105H3237.12L3237.12 0.00335676H3260.93H3269.03H3337.45H3345.55L3369.37 0.00513299L3369.37 30.3113L3326.31 30.3105V41.9466L3431.42 41.9506V30.3111H3384.88L3384.88 0.00394382H3394.86H3510.59H3520.57V30.3119L3474.03 30.3111V41.9506L3579.14 41.9486V30.3117L3536.09 30.3125V0.00453841H3559.9H3568.01H3636.42H3644.52H3668.34V30.3125H3625.28V41.9486L3730.26 41.9506V30.3111L3683.72 30.3103L3683.72 0.00394382H3819.56L3819.56 30.3111L3773.02 30.3119V41.9506H3878.23V30.3103L3835.17 30.3064L3835.17 0.00355245H3860.81H3941.8H3967.44V30.308L3924.38 30.3099V41.9494H4029.59V30.3107L3983.05 30.3099V0.00276218L4118.89 0.00453841V30.3082L4072.35 30.3099L4072.35 41.9494L4177.33 41.9474V30.3113H4134.27V0.00335676H4158.09H4166.19H4180.66H4224.16H4238.64H4246.74H4270.55V30.3113H4227.5V41.9474L4332.48 41.9494L4332.48 30.3099L4285.94 30.3082V0.00453841L4421.78 0.00276218V30.3099L4375.23 30.3107V41.9494H4480.44V30.3099L4437.38 30.308V0.00355245H4463.02H4544.02H4569.66L4569.66 30.3064L4526.6 30.3103V41.9506H4631.81L4631.81 30.3119L4585.27 30.3111L4585.27 0.00394382H4721.11L4721.11 30.3103L4674.57 30.3111V41.9506L4779.55 41.9486L4779.55 30.3125H4736.49V0.00453841H4760.31H4768.41H4842.13H4851.31H4876.95L4876.95 30.3089L4833.89 30.3109V41.9504H4939.1V30.3109H4892.55V0.00374814H5028.39L5028.39 30.3117L4981.85 30.3109V41.9524L5086.83 41.9484V30.3115L5043.77 30.3123L5043.77 0.00434272L5067.59 0.00355245L5075.69 0.00434272H5144.11L5152.21 0.00611894L5176.02 0.00434272L5176.02 30.3123L5132.97 30.3115V41.9484L5238.07 41.9504L5238.08 30.3109H5191.54L5191.54 0.00374814H5201.5L5317.25 0.00552436L5327.22 0.00374814V30.3109H5280.68V41.9504L5385.79 41.9484L5385.79 30.3123H5342.73L5342.73 0.00611894L5359.12 0.00414703L5366.54 0.00492978H5374.64H5447.72H5455.82H5463.25H5479.64L5479.63 30.3121H5436.58V41.949L5541.69 41.951V30.3115H5495.15L5495.15 0.00434272L5505.12 0.00611894L5620.86 0.00434272H5630.83V30.3123L5584.29 30.3115V41.951L5689.39 41.949L5689.4 30.3121L5646.34 30.3129L5646.34 0.00492978H5670.15H5678.25H5746.67L5754.77 0.006706L5778.59 0.00492978L5778.59 30.3129L5735.53 30.3121V41.949L5840.51 41.951L5840.51 30.3115H5793.97V0.00355245L5929.81 0.00434272V30.3107L5883.27 30.3123V41.951H5988.48V30.3115L5945.42 30.3076L5945.42 0.00473409H5971.05H6052.05H6077.69V30.3091L6034.63 30.3111V41.9506H6139.84L6139.84 30.3119L6093.3 30.3111L6093.3 0.00394382L6229.14 0.00237081V30.3111L6182.6 30.3103V41.9506L6287.58 41.9486V30.3117H6244.52L6244.52 0.00453841H6268.34H6276.44H6344.86H6352.96L6376.77 0.00631463V30.3125L6333.72 30.3117V41.9478L6438.83 41.9518V30.3123H6392.29L6392.29 0.00513299H6402.26H6518H6527.98V30.3131L6481.44 30.3123V41.9518L6586.55 41.9498V30.3129L6543.5 30.3137V0.00572005H6567.31H6575.41H6643.83H6651.93H6675.75V30.3137H6632.69V41.9498L6737.67 41.9518V30.3123L6691.13 30.3115L6691.13 0.00513299H6826.97L6826.97 30.3123L6780.43 30.3131V41.9518H6885.64V30.3115L6842.58 30.3076L6842.58 0.00473409H6868.22H6949.21H6967.17L6978 0.00315355V72.9126L6942.81 72.9112L6942.81 32.8184H6929.29V123.256L6942.81 123.257V86.1613L6978 86.1595V106.679V113.656V177.166V178.09V200.175L6942.81 200.177V163.084H6929.29V253.717L6942.81 253.719V213.623H6978V330.648L6942.81 330.646L6942.81 290.552H6929.29V380.993H6942.8L6942.8 343.899L6977.99 343.898L6978 359.285V366.159L6977.99 371.393V430.333L6977.99 437.311L6977.99 457.827L6942.8 457.826L6942.8 420.736H6929.29V511.284L6942.81 511.284V471.193L6978 471.191V479.779L6978 579.488L6978 588.078L6942.81 588.076V547.984H6929.29V638.531L6942.8 638.533V601.441L6977.99 601.44V613.794V617.158L6977.99 621.956V628.935V691.887V698.866V705.263V719.382L6942.8 719.381V682.289H6929.29V772.836H6942.81V732.745L6978 732.744L6977.99 741.331L6978 841.042V849.628H6942.8L6942.81 809.536H6929.29V900.084L6942.8 900.085L6942.8 862.992L6977.99 862.993V883.507V890.487V949.428L6977.99 956.406L6977.99 976.923L6942.8 976.922L6942.8 939.827H6929.29V1030.26L6942.81 1030.27V990.173H6978V1019.43L6978 1107.2H6942.81V1067.1L6929.29 1067.1V1157.74H6942.81V1120.64L6977.99 1120.65V1142.73V1212.51V1234.6H6942.81V1197.5H6929.29V1288.14L6942.8 1288.14L6942.81 1248.04L6978 1248.04L6978 1318.26V1365.07H6942.81L6942.81 1324.97H6929.29V1415.41H6942.8V1378.32L6977.99 1378.32V1398.83V1405.81V1464.75V1471.73L6977.99 1492.25L6942.8 1492.25L6942.8 1455.15H6929.29V1545.7H6942.81V1505.61L6978 1505.61V1514.21V1613.91V1622.5L6942.8 1622.5L6942.81 1582.41H6929.29V1672.96H6942.8L6942.8 1635.87L6977.99 1635.86V1656.38V1663.36V1722.3V1729.28V1749.8L6942.8 1749.79V1712.7L6929.29 1712.7V1803.14H6942.81L6942.81 1763.05L6978 1763.05V1880.07L6942.81 1880.07L6942.8 1839.97L6929.29 1839.97V1930.61H6942.81V1893.52L6977.99 1893.52V1915.6V1985.38V2007.47H6942.8V1970.37H6929.29V2061.01H6942.8L6942.8 2020.91H6977.99L6977.99 2137.93H6942.81V2097.84L6929.29 2097.84V2188.28H6942.8V2151.19H6977.99V2171.7V2178.68V2191.15V2228.62V2241.09V2248.07V2268.59H6942.8V2231.5H6929.29V2321.93L6942.81 2321.93V2281.84H6977.99L6977.99 2398.86H6942.8L6942.8 2358.77L6929.29 2358.77V2449.41H6942.8V2412.31H6977.99V2434.4V2504.17V2526.26L6942.81 2526.26V2489.17H6929.29V2579.8L6942.8 2579.81L6942.81 2539.71L6978 2539.71V2656.73L6942.81 2656.73L6942.81 2616.64H6929.29V2707.08L6942.8 2707.08V2669.98L6977.99 2669.98V2690.5V2697.48V2760.99V2768.9V2790.98L6942.81 2790.98V2753.89H6929.29V2844.52L6942.81 2844.53V2804.43H6978V2921.46L6942.8 2921.46L6942.81 2881.36H6929.29V2971.8H6942.8L6942.8 2934.71L6977.99 2934.71L6977.99 2950.09V2956.97L6977.99 2962.2V3021.14L6977.99 3028.12L6977.99 3048.64L6942.8 3048.63L6942.8 3011.55H6929.29V3102.09L6942.8 3102.09V3062L6977.99 3062V3070.59L6977.99 3170.3L6977.99 3178.89L6942.8 3178.88V3138.79H6929.29V3229.34L6942.8 3229.34V3192.25L6977.99 3192.25V3204.6V3207.97L6977.99 3212.76V3219.74V3282.7V3289.67V3296.07V3310.19L6942.8 3310.19V3273.1H6929.29V3363.64H6942.8V3323.55L6977.99 3323.55L6977.99 3332.14L6977.99 3431.85V3440.44H6942.8L6942.8 3400.34H6929.29V3490.89L6942.8 3490.89L6942.8 3453.8L6977.99 3453.8V3474.32V3481.3V3540.24L6977.99 3547.22L6977.99 3567.73L6942.8 3567.73L6942.8 3530.64H6929.29V3621.07L6942.8 3621.07V3580.98H6977.99V3610.24L6977.99 3698H6942.8V3657.91H6929.29V3748.54H6942.8V3711.45L6977.99 3711.45V3733.54V3803.31V3825.4H6942.8V3788.3H6929.29V3878.94L6942.8 3878.94L6942.8 3838.85L6977.99 3838.85L6977.99 3909.06V3955.87H6942.8L6942.8 3915.78H6929.29V4006.22H6942.8V3969.12L6977.99 3969.12V3989.64V3996.62V4055.56V4062.54L6977.99 4083.05H6942.8L6942.8 4045.96H6929.29V4136.51H6942.8V4096.42H6977.99V4105.01V4204.71V4213.31H6942.8L6942.8 4173.22H6929.29V4263.77H6942.8L6942.8 4226.68H6977.99V4247.2V4254.18V4313.12V4320.09V4340.61H6942.8V4303.52H6929.29V4393.96H6942.8L6942.8 4353.87L6977.99 4353.86V4470.89L6942.8 4470.89L6942.8 4430.79L6929.29 4430.79V4521.43H6942.8V4484.33L6977.99 4484.33V4506.42V4576.2V4591.67L6977.99 4601H6932.65H6907.01V4570.69H6947.93V4559.05H6844.86L6844.86 4570.69L6891.4 4570.69L6891.4 4601L6755.56 4601V4570.69L6802.1 4570.69V4559.05H6697.12V4570.69H6740.18L6740.18 4601H6716.36H6708.26H6639.84H6631.74L6607.93 4600.99V4570.69L6650.98 4570.69V4559.05H6545.88V4570.69H6592.41L6592.41 4601H6582.44H6466.7H6456.72V4570.69L6503.26 4570.69V4559.05H6398.15V4570.69L6441.2 4570.69V4601H6417.39H6409.29H6340.87H6332.77H6308.95V4570.69H6352.01V4559.05H6247.03V4570.69L6293.57 4570.69L6293.57 4601H6157.73L6157.73 4570.69L6204.27 4570.69V4559.05H6099.06V4570.69H6142.12L6142.12 4601H6116.48H6035.49H6009.85V4570.69H6052.91V4559.05H5947.7V4570.69L5994.24 4570.69V4601L5858.4 4601V4570.69L5904.94 4570.69L5904.94 4559.05H5799.96V4570.69H5843.02V4601H5819.21H5811.1H5796.63H5753.13H5738.65H5730.55H5706.74V4570.69H5749.8V4559.05H5644.81L5644.82 4570.69L5691.35 4570.69V4601L5555.52 4601V4570.69L5602.06 4570.69V4559.05H5496.85V4570.69H5539.91V4601H5514.27H5433.27H5407.63L5407.63 4570.69H5450.69V4559.05H5345.48L5345.48 4570.69L5392.03 4570.69L5392.02 4601H5256.18L5256.18 4570.69L5302.72 4570.69V4559.05H5197.74L5197.74 4570.69H5240.8V4601H5216.98H5208.88H5135.16H5134.09H5108.45L5108.45 4570.69H5151.51V4559.05H5046.3V4570.69H5092.84V4601H4957L4957 4570.69L5003.54 4570.69V4559.05H4898.56V4570.69L4941.62 4570.69L4941.62 4601L4917.81 4601L4909.7 4601H4841.29L4833.19 4600.99L4809.37 4601L4809.37 4570.69L4852.43 4570.69V4559.05H4747.32L4747.32 4570.69H4793.86L4793.86 4601H4783.89L4668.15 4601L4658.18 4601V4570.69H4704.72V4559.05H4599.61L4599.61 4570.69H4642.66L4642.66 4600.99H4626.28L4618.85 4600.99H4610.75H4537.67H4529.57H4522.15H4505.76L4505.76 4570.69H4548.81V4559.05H4443.71V4570.69H4490.24L4490.25 4601L4480.28 4600.99L4364.53 4601H4354.57V4570.69L4401.11 4570.69V4559.05H4296L4296 4570.69L4339.05 4570.68L4339.05 4600.99H4315.24H4307.14H4238.72L4230.62 4600.99L4206.8 4600.99L4206.8 4570.68L4249.86 4570.69V4559.05H4144.88L4144.88 4570.69H4191.42V4601L4055.58 4601V4570.69L4102.13 4570.69V4559.05H3996.92V4570.69H4039.98L4039.97 4600.99H4014.34H3933.34H3907.7V4570.69H3950.76V4559.05H3845.55L3845.55 4570.69L3892.09 4570.69L3892.09 4600.99L3756.25 4601V4570.69L3802.79 4570.69V4559.05H3697.81V4570.68H3740.87L3740.87 4600.99H3717.05H3708.95H3640.53H3632.43L3608.62 4600.99L3608.62 4570.68L3651.68 4570.68V4559.05H3546.57V4570.69H3593.11L3593.11 4600.99H3583.13H3467.4H3457.42V4570.69L3503.95 4570.69V4559.05H3398.85V4570.68L3441.9 4570.68V4600.99H3418.08H3409.98H3341.56H3333.46H3309.64V4570.68H3352.7V4559.05H3247.72V4570.69L3294.26 4570.69L3294.26 4600.99H3158.42L3158.42 4570.69L3204.97 4570.69V4559.05H3099.76V4570.69H3142.82L3142.82 4600.99H3117.18H3036.18H3010.54V4570.69H3053.6V4559.05H2948.39V4570.69L2994.94 4570.69V4600.99L2859.1 4600.99V4570.69L2905.64 4570.69L2905.64 4559.05H2800.66V4570.68H2843.71V4600.99H2819.9H2811.8H2797.32H2753.82H2739.35H2731.25H2707.43V4570.68H2750.49V4559.05H2645.51L2645.51 4570.69L2692.05 4570.69V4600.99L2556.21 4600.99V4570.69L2602.75 4570.69L2602.75 4559.05H2497.54V4570.69H2540.6V4600.99H2514.98H2433.98H2408.34L2408.34 4570.69H2451.4V4559.05H2346.19L2346.19 4570.69L2392.73 4570.69L2392.73 4600.99H2256.89L2256.89 4570.69L2303.43 4570.69V4559.05H2198.45L2198.45 4570.68H2241.51L2241.51 4600.99H2217.69H2209.59H2135.87H2126.69H2101.05L2101.05 4570.69H2144.11V4559.05H2038.9V4570.69H2085.45V4600.99H1949.6L1949.61 4570.69L1996.15 4570.69V4559.05H1891.16V4570.68L1934.22 4570.68L1934.22 4600.99L1910.41 4600.99L1902.31 4600.99H1833.89L1825.79 4600.99L1801.98 4600.99L1801.98 4570.68L1845.03 4570.68V4559.05H1739.92L1739.92 4570.69H1786.46L1786.46 4600.99H1776.49L1660.75 4600.99L1650.78 4600.99L1650.78 4570.69H1697.32V4559.05H1592.22L1592.21 4570.68H1635.27L1635.27 4600.99H1618.88L1611.46 4600.99H1603.35H1530.28H1522.18H1514.75H1498.36L1498.37 4570.68H1541.42V4559.04H1436.31V4570.68H1482.85L1482.85 4600.99L1472.88 4600.99L1357.14 4600.99H1347.17V4570.68L1393.71 4570.68V4559.04H1288.61L1288.6 4570.68L1331.66 4570.68L1331.66 4600.99H1307.85H1299.75H1231.33L1223.23 4600.99L1199.41 4600.99L1199.41 4570.68L1242.47 4570.68V4559.04H1137.49L1137.49 4570.68H1184.03V4600.99L1048.19 4600.99V4570.68L1094.73 4570.68L1094.73 4559.04H989.521V4570.68H1032.58L1032.58 4600.99H1006.94H925.946H900.305V4570.68H943.365V4559.04H838.155L838.154 4570.68L884.695 4570.68L884.696 4600.99L748.857 4600.99V4570.68L795.397 4570.68V4559.04H690.415V4570.68H733.472L733.474 4600.99H709.658H701.557H633.138H625.037L601.221 4600.98L601.223 4570.68L644.28 4570.68V4559.04H539.172V4570.68H585.71L585.711 4600.99H575.733H460H450.02L450.023 4570.68L496.562 4570.68V4559.04H391.453V4570.68L434.506 4570.68L434.511 4600.99H410.694H402.592H334.177H326.078H302.258L302.261 4570.68H345.319L345.317 4559.04H240.337V4570.68L286.877 4570.68L286.878 4600.99H151.037L151.036 4570.68L197.582 4570.68L197.578 4559.04H92.3674V4570.68H135.428L135.427 4600.99H109.789H28.7924L10.8374 4600.99Z" fill="#FF0202" fill-opacity="0.5"/>
</svg>
