<svg width="667" height="667" viewBox="0 0 667 667" fill="none" xmlns="http://www.w3.org/2000/svg">
<path d="M138.741 127.247C125.815 135.925 126 133.894 126 234.156C126 322.97 126 324.263 129.693 324.263C133.386 324.263 133.386 322.97 133.386 237.849C133.386 183.009 134.125 149.035 135.417 144.603C136.71 139.803 139.295 136.479 143.172 133.894C148.896 130.386 153.328 130.386 335.942 130.755L522.987 131.309L527.972 136.479L533.142 141.464L534.066 233.418C534.989 318.908 535.174 325.186 538.313 325.74C541.267 326.294 541.452 320.939 541.452 233.418C541.452 145.527 541.267 140.172 537.943 135.186C536.097 132.417 532.035 128.355 529.265 126.508C524.095 123.184 516.894 123 334.464 123H145.019L138.741 127.247Z" fill="#FEA837"/>
<path d="M329.832 136.849C327.801 139.249 327.801 144.789 329.832 166.392C331.124 181.164 332.971 193.166 333.709 193.166C334.633 193.166 335.371 190.027 335.371 186.149C335.371 182.456 336.294 170.454 337.587 159.56C339.249 143.681 339.249 139.249 337.218 136.849C334.263 133.341 332.786 133.341 329.832 136.849Z" fill="#FEA837"/>
<path d="M298.996 146.266C298.258 148.297 299.92 151.251 303.797 154.759C307.121 157.898 311.921 163.622 314.506 167.5C317.092 171.562 319.677 174.516 319.861 174.147C321.154 172.855 315.06 155.313 311.368 149.22C307.49 142.757 301.027 141.28 298.996 146.266Z" fill="#FEA837"/>
<path d="M356.605 147.743C353.097 152.913 346.45 169.9 346.45 173.408C346.45 174.516 348.85 172.116 351.804 167.684C354.574 163.253 359.744 157.344 363.068 154.574C367.315 151.066 368.792 148.481 368.053 146.45C366.391 141.834 359.929 142.573 356.605 147.743Z" fill="#FEA837"/>
<path d="M241.941 164.361C231.047 169.162 227.169 180.24 232.708 190.95C234.185 193.719 240.833 201.474 247.48 207.937L259.667 219.754L258.743 233.787C257.82 245.974 258.189 248.559 261.882 255.022C271.114 270.716 292.349 279.025 311.921 274.594C324.662 271.824 331.678 265.731 331.678 257.422C331.678 247.266 328.17 238.034 322.446 232.495C319.122 229.356 316.906 225.478 316.906 222.709C316.906 220.124 315.799 216.431 314.321 214.4C313.029 212.369 311.182 206.091 310.444 200.551C307.305 176.917 294.564 162.33 276.285 161.96C267.976 161.776 266.129 164.361 271.299 169.531C275.177 173.408 275.731 175.44 274.992 182.271C274.253 188.365 274.807 191.134 277.023 192.981C282.009 197.228 280.347 198.705 270.745 198.705C260.405 198.705 253.573 195.935 247.295 189.103C240.463 181.717 240.279 176.363 246.741 170.085C255.42 161.776 253.389 159.375 241.941 164.361ZM286.809 185.041C287.363 186.518 286.994 188.734 285.701 190.026C283.116 192.612 277.023 187.257 278.87 184.118C280.716 181.164 285.517 181.717 286.809 185.041ZM303.981 222.893C301.396 231.572 301.766 239.511 304.905 248.374C307.12 255.022 307.12 255.945 304.72 255.945C303.243 255.945 300.104 253.914 297.703 251.513C293.641 247.636 293.457 246.343 294.934 238.773C296.411 230.279 303.612 214.215 305.089 215.692C305.458 216.061 304.905 219.385 303.981 222.893Z" fill="#F07C00"/>
<path d="M380.239 163.806C366.76 167.868 355.682 186.148 355.682 204.428C355.682 208.121 354.389 212.183 352.912 213.476C351.435 214.768 350.142 218.092 350.142 220.861C350.142 224 347.926 228.247 344.603 231.94C335.925 241.357 332.601 258.529 338.14 266.469C342.387 272.562 358.451 276.994 370.638 275.516C396.673 272.193 412.552 252.436 407.382 229.54L405.536 221.046L416.061 211.26C428.616 199.443 436.925 186.887 436.925 179.686C436.925 172.3 427.878 163.621 420.307 163.621H414.399L420.123 170.084C426.955 177.839 427.139 180.055 421.969 186.517C416.43 193.534 405.166 198.704 395.38 198.704C386.702 198.704 385.04 197.042 389.841 193.165C391.687 191.688 392.611 187.441 392.611 180.978C392.611 173.038 393.349 170.638 396.673 168.422C398.889 166.76 400.181 165.099 399.627 164.545C397.596 162.514 385.963 161.96 380.239 163.806ZM388.179 184.117C390.026 187.256 383.932 192.611 381.347 190.026C380.055 188.733 379.685 186.517 380.239 185.04C381.532 181.717 386.333 181.163 388.179 184.117ZM369.53 228.801C373.961 240.434 372.669 250.405 366.391 253.913C359.744 257.79 358.821 256.129 362.329 247.45C364.545 242.28 365.098 237.295 364.175 229.54C362.883 217.353 364.914 216.984 369.53 228.801Z" fill="#F07C00"/>
<path d="M187.286 180.425C178.423 185.595 186.916 199.628 202.242 205.167C214.613 209.414 215.721 209.045 212.582 201.843C211.289 198.704 209.443 192.796 208.889 189.103C208.335 185.041 206.304 181.348 204.273 180.24C199.841 177.84 191.348 178.024 187.286 180.425Z" fill="#FEA837"/>
<path d="M460.376 181.717C458.53 183.564 457.237 187.626 457.237 190.58C457.237 193.535 455.576 198.705 453.36 202.213L449.667 208.306L456.499 207.014C470.717 204.429 483.088 195.381 483.088 187.441C483.088 179.132 466.47 175.07 460.376 181.717Z" fill="#FEA837"/>
<path d="M181.747 221.969C170.483 227.878 167.344 245.789 175.838 255.759C179.9 260.745 181.931 261.483 189.317 261.483C196.149 261.483 199.842 260.191 207.043 255.021C228.462 240.249 229.016 238.218 209.813 245.789C197.072 250.774 187.84 251.697 184.332 248.189C180.823 244.681 181.747 237.664 186.547 233.048C190.609 228.986 195.41 227.509 218.122 223.631C224.215 222.523 224.953 221.969 221.815 220.861C215.352 218.092 187.286 218.83 181.747 221.969Z" fill="#FEA837"/>
<path d="M445.235 220.678C442.465 221.786 445.235 222.894 455.39 224.555C471.27 227.14 482.902 232.495 483.456 237.111C484.749 251.698 477.917 253.914 456.313 245.79C449.482 243.205 443.019 241.358 442.28 241.543C441.357 241.912 447.081 246.528 454.836 251.883C471.639 263.146 481.056 264.623 489.55 257.238C499.705 248.559 497.12 228.064 484.933 221.786C479.209 218.831 452.067 218.093 445.235 220.678Z" fill="#FEA837"/>
<path d="M483.398 334.235C481.921 343.098 456.44 395.352 454.593 393.321C452.931 391.659 447.577 368.394 443.145 345.129C442.037 338.666 440.006 332.573 438.529 331.465C435.021 328.695 425.788 330.173 426.158 333.496C426.342 334.973 430.405 353.622 435.205 374.672C443.884 412.709 444.068 413.078 448.684 412.524C451.823 412.155 455.147 409.385 458.286 404.584C465.672 393.321 495.03 336.266 495.03 333.127C495.03 330.173 491.337 327.957 486.721 327.957C485.429 327.957 483.952 330.726 483.398 334.235Z" fill="#FEA837"/>
<path d="M84.3793 333.496C64.4376 341.435 52.805 359.9 54.0975 381.688C54.8361 395.167 57.7904 401.076 67.2073 408.092C73.116 412.524 89.9187 414.186 98.2277 411.231C101.551 410.123 104.506 409.569 105.06 410.123C107.091 412.154 101.182 426.188 96.0119 432.281C89.1801 440.036 80.5018 440.959 72.1927 434.866C63.5144 428.219 56.6826 434.127 64.8069 441.513C70.1616 446.314 83.6407 447.237 93.4269 443.544C108.752 437.635 117.431 422.864 121.862 395.352C122.785 389.258 124.078 382.057 124.817 379.103C126.109 374.302 125.924 374.118 118.169 374.118H110.045L109.676 383.165C108.937 397.383 106.721 401.26 97.8584 403.661C88.2569 406.246 79.0246 403.292 73.3006 395.721C67.7613 388.335 67.9459 367.101 73.4853 356.576C79.9478 344.39 87.3336 338.666 97.6737 337.558C105.244 336.819 107.46 337.373 110.784 340.697C112.999 342.913 114.661 346.975 114.661 350.298C114.661 355.099 115.215 355.838 118.723 355.284C124.263 354.545 129.248 345.682 126.478 341.435C119.647 330.357 100.813 326.848 84.3793 333.496Z" fill="#FEA837"/>
<path d="M248.529 332.018C243.544 334.788 242.066 337.188 242.066 342.543C242.066 346.79 242.251 346.975 245.759 343.651C247.79 341.804 253.514 339.958 258.684 339.404C269.948 338.296 269.763 336.265 262.931 378.364C257.946 409.015 257.946 409.569 261.454 412.154C263.301 413.631 266.809 414.739 268.84 414.739C272.717 414.739 272.902 413.631 274.195 396.644C274.933 386.858 276.78 370.424 278.626 360.269L281.765 341.804H293.582C302.815 341.62 305.769 340.881 307.8 338.112C312.232 332.018 311.124 329.803 304.846 331.834C300.968 333.311 293.767 333.311 280.842 331.834C257.946 329.249 253.145 329.433 248.529 332.018Z" fill="#FEA837"/>
<path d="M555.229 345.04C544.065 351.033 542.839 352.042 546.358 353.176C551.53 354.562 570.137 350.755 572.52 347.57C574.128 345.134 572.304 339.101 569.629 338.384C568.915 338.193 562.37 341.218 555.229 345.04Z" fill="#FEA837"/>
<path d="M568.709 357.693C574.702 368.857 575.711 370.083 576.845 366.564C578.231 361.391 574.424 342.785 571.239 340.402C568.803 338.793 562.77 340.618 562.053 343.293C561.862 344.007 564.887 350.552 568.709 357.693Z" fill="#FEA837"/>
<path d="M317.024 344.574C307.792 353.252 306.868 354.545 310.561 354.729C315.916 354.729 332.903 346.236 334.381 342.543C335.304 339.773 331.98 334.419 329.211 334.419C328.472 334.419 322.933 339.035 317.024 344.574Z" fill="#FEA837"/>
<path d="M333.319 353.308C341.997 362.54 343.289 363.464 343.474 359.771C343.474 354.416 334.98 337.429 331.288 335.951C328.518 335.028 323.163 338.352 323.163 341.122C323.163 341.86 327.779 347.399 333.319 353.308Z" fill="#FEA837"/>
<path d="M145.312 336.45C139.219 342.359 143.835 351.591 151.59 349.191C159.53 346.606 159.53 333.496 151.59 333.496C149.744 333.496 146.789 334.788 145.312 336.45Z" fill="#FEA837"/>
<path d="M504.631 335.712C501.493 338.851 501.862 345.498 505.185 348.267C507.401 350.114 509.063 350.114 512.756 348.452C516.633 346.79 517.372 345.313 516.818 340.328C516.449 335.527 515.341 334.234 511.648 333.865C509.063 333.496 505.924 334.419 504.631 335.712Z" fill="#FEA837"/>
<path d="M306.032 419.021C303.635 421.483 303.917 426.696 306.455 428.868C308.147 430.316 309.416 430.316 312.236 429.013C315.197 427.709 315.761 426.551 315.338 422.641C315.056 418.877 314.21 417.863 311.39 417.573C309.416 417.284 307.019 418.008 306.032 419.021Z" fill="#FEA837"/>
<path d="M535.916 419.021C533.519 421.483 533.801 426.696 536.339 428.868C538.031 430.316 539.299 430.316 542.119 429.013C545.08 427.709 545.644 426.551 545.221 422.641C544.939 418.877 544.093 417.863 541.273 417.573C539.299 417.284 536.903 418.008 535.916 419.021Z" fill="#FEA837"/>
<path d="M594.369 344.02C590.307 344.574 588.83 346.236 587.353 351.96C586.06 357.13 584.398 359.345 581.444 359.715C575.905 360.453 574.981 364.885 579.967 366.177C583.475 367.101 583.844 368.024 582.921 373.932C579.967 389.997 579.598 406.43 582.183 409.569C586.429 414.924 599.539 414.739 605.448 409.2C611.172 403.845 610.433 401.629 603.971 404.03C592.523 407.907 590.676 402.552 594.923 378.549L596.954 366.916L604.525 366.362C610.064 365.993 612.464 364.885 612.834 362.484C613.388 359.899 612.095 359.345 606.002 359.345H598.431L599.724 351.036C600.278 346.42 600.462 342.912 600.093 342.912C599.724 343.097 597.139 343.651 594.369 344.02Z" fill="#FEA837"/>
<path d="M138.111 382.611C134.418 410.123 135.157 413.447 145.682 412.524C150.482 412.154 152.698 411.047 153.067 408.646C153.437 406.8 152.514 405.507 150.852 405.507C147.159 405.507 147.159 401.445 150.852 380.765C153.806 365.07 153.806 364.147 150.482 361.746C142.727 356.207 141.619 358.053 138.111 382.611Z" fill="#FEA837"/>
<path d="M177.994 363.962C168.208 369.87 162.668 380.949 162.668 394.243C162.668 405.691 164.884 410.492 171.162 412.893C176.701 415.108 183.903 412.523 190.919 405.876C195.72 401.26 195.905 401.26 195.905 405.138C195.905 410.677 202.367 414.739 208.46 413.077C214 411.6 216.585 405.507 211.784 405.507C207.906 405.507 207.906 393.69 211.599 375.779C213.261 368.393 214 361.931 213.446 361.377C212.707 360.823 206.245 360.084 199.044 359.715C187.411 359.161 184.826 359.715 177.994 363.962ZM199.597 369.132C199.597 383.165 187.78 404.399 180.579 403.291C171.347 401.999 176.148 375.41 187.042 367.839C193.504 363.223 199.597 363.962 199.597 369.132Z" fill="#FEA837"/>
<path d="M306.507 363.593C297.459 369.502 291.55 382.058 292.474 393.136C294.689 418.802 327.925 420.833 341.035 395.906C347.129 384.089 341.774 363.039 331.988 360.454C323.125 358.054 312.785 359.346 306.507 363.593ZM328.479 370.425C333.465 380.027 327.002 403.846 318.324 407.908C314.631 409.57 313.339 409.2 309.83 405.877C302.629 398.676 304.845 378.18 313.708 368.025C317.77 363.408 325.34 364.701 328.479 370.425Z" fill="#FEA837"/>
<path d="M365.593 363.593C358.208 368.394 351.006 381.688 351.006 390.182C351.006 411.231 368.917 420.464 387.566 409.2C390.705 407.169 393.475 404.215 393.475 402.738C393.475 400.153 392.921 400.153 387.935 402.738C378.334 407.723 370.763 406.061 366.701 397.937C363.008 390.92 363.378 384.089 367.624 374.672C369.84 369.317 372.61 366.547 375.749 365.624C381.657 364.147 383.689 365.624 385.166 372.271C386.458 378.18 387.935 378.919 393.659 375.964C398.46 373.379 398.091 365.809 393.105 362.3C386.827 357.869 373.164 358.608 365.593 363.593Z" fill="#FEA837"/>
<path d="M500.385 360.638C500.2 361.376 500.2 362.854 500.385 363.592C500.569 364.331 499.277 372.824 497.615 382.241C496.138 391.658 495.03 402.183 495.399 405.691C495.953 411.415 496.507 411.969 502.97 412.523C510.725 413.262 514.233 408.83 509.248 404.953C506.847 403.106 506.663 401.075 508.509 391.658C509.617 385.565 510.54 375.963 510.54 370.424C510.725 360.638 510.54 360.269 505.739 359.715C502.785 359.345 500.385 359.715 500.385 360.638Z" fill="#FEA837"/>
<path d="M540.268 361.561C528.081 368.209 519.403 384.827 521.619 397.013C522.911 404.03 530.666 411.969 538.052 413.631C545.253 415.293 557.44 411.6 562.979 406.061C568.518 400.521 565.933 397.936 559.286 402.553C550.054 409.015 535.652 404.399 535.652 395.167C535.652 392.212 537.683 391.105 546.915 389.443C565.749 385.934 574.796 372.64 565.195 363.038C560.948 358.792 546.73 358.053 540.268 361.561ZM555.409 367.839C557.624 373.748 553.378 380.395 545.992 382.98C537.313 385.75 535.282 384.642 537.683 378.179C541.93 367.285 552.639 360.823 555.409 367.839Z" fill="#FEA837"/>
<path d="M126 473.272C126 528.481 126.554 531.62 138.741 539.744L145.018 543.991H333.172C539.605 543.991 526.68 544.729 536.651 532.912L541.451 527.004V475.303C541.451 427.111 541.267 423.787 538.312 424.341C535.173 424.895 534.989 429.142 534.066 474.934C533.327 514.448 532.588 525.711 530.557 528.111C523.171 536.79 529.449 536.605 333.541 536.605C151.85 536.605 149.45 536.605 143.541 532.912C140.218 530.881 136.525 526.45 135.417 523.311C134.124 519.802 133.386 499.676 133.386 470.871C133.386 425.264 133.201 423.972 129.693 423.972C126 423.972 126 425.264 126 473.272Z" fill="#FEA837"/>
<path d="M240.71 458.13C235.724 459.423 225.753 462.747 218.552 465.332C211.536 467.917 202.857 470.132 199.718 470.132C191.963 470.132 186.793 477.149 189.932 482.873C193.071 488.782 203.596 487.858 229.262 479.18C249.942 472.164 252.896 471.61 266.375 472.348C280.962 473.271 281.147 473.271 288.163 481.211C292.041 485.458 295.18 490.074 295.18 491.367C295.18 495.613 283.732 503.738 279.116 502.815C276.715 502.445 274.869 502.63 274.869 503.369C274.869 506.507 282.07 510.754 287.425 510.754C298.319 510.754 302.196 497.645 295.18 484.35C292.78 480.103 292.226 477.518 293.703 477.518C296.103 477.518 310.505 492.105 323.431 507.615C328.416 513.339 333.032 518.14 333.771 518.14C334.694 518.14 341.526 510.385 349.281 500.968C361.468 486.381 371.254 477.518 375.316 477.518C375.87 477.518 374.577 480.473 372.546 483.981C366.822 493.767 367.192 502.815 373.469 508.354C381.778 515.37 393.042 509.831 393.042 498.383C393.042 493.582 392.303 492.29 389.534 492.29C387.502 492.29 385.287 493.028 384.733 494.136C384.179 495.06 385.287 495.983 387.318 495.983C391.749 495.983 392.488 501.153 388.426 502.63C384.363 504.292 372.731 495.798 372.731 491.367C372.731 488.228 373.1 488.228 374.577 490.443C376.054 492.659 376.424 492.474 376.424 488.966C376.608 470.686 401.166 466.993 438.28 479.365C467.084 488.966 477.979 488.966 477.979 479.18C477.979 474.01 473.362 470.686 464.315 469.394C459.699 468.655 448.989 465.516 440.68 462.377C426.832 457.023 423.324 456.469 404.12 456.469C384.917 456.284 381.963 456.838 372.362 461.269C358.329 467.732 350.389 474.01 341.895 485.089C335.617 493.213 330.263 496.721 330.263 492.474C330.263 489.336 313.46 472.348 304.781 466.809C288.348 456.099 261.759 452.591 240.71 458.13Z" fill="#231F20"/>
<path d="M274.131 495.244C272.469 499.491 272.654 499.491 277.639 497.275C283.179 494.69 283.733 492.29 278.747 492.29C276.901 492.29 274.685 493.582 274.131 495.244Z" fill="#231F20"/>
<path d="M288.718 494.136C288.164 495.06 288.534 495.983 289.457 495.983C290.565 495.983 291.488 495.06 291.488 494.136C291.488 493.029 291.119 492.29 290.749 492.29C290.195 492.29 289.272 493.029 288.718 494.136Z" fill="#231F20"/>
</svg>
