<svg width="498" height="498" viewBox="0 0 498 498" fill="none" xmlns="http://www.w3.org/2000/svg">
<path d="M108.806 227.56C103.286 227.56 98.3261 226.32 93.9261 223.84C89.5261 221.36 86.0461 217.76 83.4861 213.04C80.9261 208.32 79.6461 202.6 79.6461 195.88C79.6461 189.8 80.6461 183.96 82.6461 178.36C84.7261 172.68 87.6461 167.6 91.4061 163.12C95.1661 158.56 99.7261 154.96 105.086 152.32C110.446 149.68 116.406 148.36 122.966 148.36C127.766 148.36 131.766 149.12 134.966 150.64C138.166 152.16 139.766 154.4 139.766 157.36C139.766 158.8 139.366 160.24 138.566 161.68C137.846 163.04 136.886 164.2 135.686 165.16C134.486 166.12 133.246 166.6 131.966 166.6C131.166 166.6 130.526 166.4 130.046 166C125.886 163.2 121.166 161.8 115.886 161.8C110.286 161.8 105.566 163.12 101.726 165.76C97.8861 168.32 94.9661 171.72 92.9661 175.96C91.0461 180.2 90.0861 184.8 90.0861 189.76C90.0861 197.2 92.1661 203.12 96.3261 207.52C100.566 211.92 106.206 214.12 113.246 214.12C116.286 214.12 119.126 213.68 121.766 212.8C124.406 211.92 126.566 210.64 128.246 208.96C129.926 207.28 130.766 205.24 130.766 202.84C130.766 200.44 130.046 198.6 128.606 197.32C127.166 196.04 125.286 195.12 122.966 194.56C120.646 193.92 118.126 193.52 115.406 193.36C113.486 193.2 112.046 192.96 111.086 192.64C110.206 192.32 109.766 191.36 109.766 189.76C109.766 187.84 110.366 186.24 111.566 184.96C112.766 183.68 114.246 182.96 116.006 182.8C118.406 182.56 121.286 182.4 124.646 182.32C128.006 182.16 131.486 182.08 135.086 182.08C138.766 182 142.206 181.96 145.406 181.96C146.446 181.96 147.246 182.16 147.806 182.56C148.366 182.88 148.646 183.6 148.646 184.72C148.646 186.08 148.326 187.56 147.686 189.16C147.126 190.76 146.326 192.12 145.286 193.24C144.246 194.36 143.046 194.92 141.686 194.92H139.766C140.006 195.72 140.206 196.64 140.366 197.68C140.606 198.64 140.726 199.76 140.726 201.04C140.726 204.56 139.886 207.92 138.206 211.12C136.526 214.24 134.206 217.04 131.246 219.52C128.286 222 124.886 223.96 121.046 225.4C117.206 226.84 113.126 227.56 108.806 227.56ZM164.589 166.36C162.349 166.28 160.549 165.6 159.189 164.32C157.829 163.04 157.149 161.24 157.149 158.92C157.229 156.44 158.069 154.44 159.669 152.92C161.269 151.32 163.309 150.56 165.789 150.64C168.109 150.72 169.909 151.4 171.189 152.68C172.549 153.96 173.189 155.76 173.109 158.08C173.029 160.48 172.229 162.48 170.709 164.08C169.189 165.6 167.149 166.36 164.589 166.36ZM164.709 227.2C162.309 227.2 160.429 226.56 159.069 225.28C157.709 223.92 157.029 221.64 157.029 218.44C157.029 216.6 157.189 214.8 157.509 213.04C157.909 211.28 158.349 209.56 158.829 207.88C159.389 206.12 159.829 204.32 160.149 202.48C160.549 200.64 160.749 198.68 160.749 196.6C160.749 195.16 160.549 193.8 160.149 192.52C159.749 191.16 158.869 190.16 157.509 189.52C156.469 188.96 155.549 188.4 154.749 187.84C154.029 187.2 153.669 186.4 153.669 185.44C153.669 184.32 154.189 183.12 155.229 181.84C156.269 180.56 157.629 179.48 159.309 178.6C161.069 177.64 162.869 177.16 164.709 177.16C166.709 177.16 168.149 177.68 169.029 178.72C169.989 179.76 170.629 181.08 170.949 182.68C171.269 184.28 171.429 185.92 171.429 187.6C171.429 190.16 171.229 192.68 170.829 195.16C170.429 197.56 170.029 199.8 169.629 201.88C169.309 203.4 169.069 204.8 168.909 206.08C168.749 207.36 168.669 208.56 168.669 209.68C168.669 211.68 169.149 213.2 170.109 214.24C171.069 215.2 172.429 216.12 174.189 217C174.909 217.4 175.269 218 175.269 218.8C175.269 219.44 174.949 220.44 174.309 221.8C173.669 223.16 172.549 224.4 170.949 225.52C169.429 226.64 167.349 227.2 164.709 227.2ZM199.155 227.56C194.355 227.56 190.475 226.08 187.515 223.12C184.635 220.08 183.195 215.76 183.195 210.16C183.195 206.16 183.955 202.2 185.475 198.28C187.075 194.28 189.355 190.68 192.315 187.48C195.275 184.28 198.835 181.72 202.995 179.8C207.155 177.88 211.835 176.92 217.035 176.92C221.835 176.92 225.915 177.76 229.275 179.44C232.715 181.04 234.435 183.24 234.435 186.04C234.435 186.76 234.355 187.72 234.195 188.92C234.035 190.04 233.835 190.96 233.595 191.68C233.355 192.32 232.995 192.92 232.515 193.48C232.115 193.96 231.555 194.2 230.835 194.2C230.515 194.2 229.915 194.08 229.035 193.84C228.715 195.52 228.475 197.16 228.315 198.76C228.155 200.36 228.075 201.96 228.075 203.56C228.075 206.6 228.515 209.32 229.395 211.72C230.355 214.04 232.195 215.48 234.915 216.04C235.635 216.2 236.195 216.44 236.595 216.76C237.075 217.08 237.315 217.76 237.315 218.8C237.315 219.68 237.075 220.8 236.595 222.16C236.195 223.52 235.355 224.76 234.075 225.88C232.875 226.92 231.115 227.44 228.795 227.44C225.675 227.44 223.275 226.32 221.595 224.08C219.915 221.76 219.075 218.48 219.075 214.24C216.915 218.16 214.155 221.36 210.795 223.84C207.515 226.32 203.635 227.56 199.155 227.56ZM202.995 215.08C206.195 215.08 208.995 214.08 211.395 212.08C213.875 210.08 215.795 207.56 217.155 204.52C218.035 202.6 218.715 200.52 219.195 198.28C219.675 195.96 219.995 193.68 220.155 191.44C218.795 190.8 217.235 190.28 215.475 189.88C213.715 189.48 211.875 189.28 209.955 189.28C205.075 189.28 201.035 190.72 197.835 193.6C194.715 196.48 193.155 200.08 193.155 204.4C193.155 207.6 194.035 210.2 195.795 212.2C197.555 214.12 199.955 215.08 202.995 215.08ZM300.482 227.2C299.522 227.2 298.522 227.04 297.482 226.72C296.522 226.4 295.722 225.64 295.082 224.44C294.442 223.24 294.122 221.4 294.122 218.92C294.122 217.16 294.242 215 294.482 212.44C294.802 209.88 295.202 207.12 295.682 204.16C296.322 200.16 296.842 195.96 297.242 191.56C297.722 187.08 297.962 182.52 297.962 177.88C297.962 174.12 297.762 170.88 297.362 168.16C297.042 165.36 296.602 163.2 296.042 161.68C293.002 161.76 290.122 161.96 287.402 162.28C284.682 162.6 281.922 163.12 279.122 163.84C278.402 163.92 277.762 164.04 277.202 164.2C276.722 164.28 276.242 164.32 275.762 164.32C275.042 164.32 274.522 164.2 274.202 163.96C273.882 163.64 273.722 162.92 273.722 161.8C273.722 160.44 273.922 159.04 274.322 157.6C274.722 156.08 275.322 154.8 276.122 153.76C276.922 152.64 277.842 151.84 278.882 151.36C280.002 150.8 281.202 150.44 282.482 150.28C284.482 150.04 287.042 149.84 290.162 149.68C293.282 149.44 296.682 149.24 300.362 149.08C304.122 148.92 307.802 148.84 311.402 148.84C317.242 148.84 321.402 148.88 323.882 148.96C326.442 149.04 328.162 149.16 329.042 149.32C330.162 149.48 330.922 149.84 331.322 150.4C331.802 150.88 332.042 151.68 332.042 152.8C332.042 154.96 331.082 157.12 329.162 159.28C328.362 160.24 327.522 161 326.642 161.56C325.762 162.04 324.602 162.24 323.162 162.16C321.882 162 320.002 161.88 317.522 161.8C315.042 161.72 312.282 161.68 309.242 161.68C309.162 164.48 308.922 167.76 308.522 171.52C308.202 175.2 307.802 178.92 307.322 182.68C306.842 186.36 306.442 190.04 306.122 193.72C305.802 197.4 305.642 200.76 305.642 203.8C305.642 206.6 305.882 209.08 306.362 211.24C306.922 213.32 308.002 215.12 309.602 216.64C310.722 217.76 311.282 218.96 311.282 220.24C311.282 222 310.282 223.6 308.282 225.04C306.282 226.48 303.682 227.2 300.482 227.2ZM344.329 227.56C338.809 227.56 334.369 226.08 331.009 223.12C327.729 220.08 326.089 215.64 326.089 209.8C326.089 207.08 326.449 204.44 327.169 201.88C327.969 199.32 329.009 196.92 330.289 194.68C329.009 195.48 328.049 195.88 327.409 195.88C326.449 195.88 325.769 195.36 325.369 194.32C325.049 193.2 324.889 192.12 324.889 191.08C324.889 189.24 325.249 187.8 325.969 186.76C326.769 185.64 327.529 184.8 328.249 184.24C329.929 182.8 332.569 181.24 336.169 179.56C339.769 177.8 344.089 176.92 349.129 176.92C356.009 176.92 361.329 178.84 365.089 182.68C368.929 186.52 370.849 191.88 370.849 198.76C370.849 204.12 369.729 209 367.489 213.4C365.249 217.72 362.129 221.16 358.129 223.72C354.209 226.28 349.609 227.56 344.329 227.56ZM348.049 215.32C352.049 215.32 355.409 214.08 358.129 211.6C360.929 209.04 362.329 205.68 362.329 201.52C362.329 197.2 360.929 194.12 358.129 192.28C355.329 190.44 352.089 189.52 348.409 189.52C346.729 189.52 345.209 189.68 343.849 190C342.489 190.32 341.209 190.72 340.009 191.2C338.889 192.8 337.889 194.6 337.009 196.6C336.129 198.6 335.689 200.8 335.689 203.2C335.689 207.2 336.889 210.24 339.289 212.32C341.689 214.32 344.609 215.32 348.049 215.32ZM347.633 248.56C345.393 248.56 343.593 247.92 342.233 246.64C340.873 245.36 340.193 243.6 340.193 241.36C340.193 238.8 340.993 236.76 342.593 235.24C344.193 233.72 346.233 232.96 348.713 232.96C351.033 232.96 352.833 233.56 354.113 234.76C355.393 236.04 356.033 237.84 356.033 240.16C356.033 242.56 355.273 244.56 353.753 246.16C352.233 247.76 350.193 248.56 347.633 248.56ZM334.402 170.68C333.762 170.68 333.202 170.44 332.722 169.96C332.162 169.4 331.882 168.72 331.882 167.92C331.882 167.44 332.002 166.88 332.242 166.24C332.402 165.6 332.722 164.92 333.202 164.2C334.082 162.76 335.322 161.16 336.922 159.4C338.442 157.56 340.002 155.84 341.602 154.24C343.122 152.64 344.282 151.48 345.082 150.76C347.242 149.08 349.162 148.24 350.842 148.24C351.882 148.24 352.842 148.52 353.722 149.08C354.682 149.56 355.482 150.12 356.122 150.76C356.922 151.56 358.002 152.76 359.362 154.36C360.722 155.88 362.042 157.56 363.322 159.4C364.682 161.16 365.722 162.84 366.442 164.44C366.842 165 367.082 165.56 367.162 166.12C367.322 166.68 367.402 167.16 367.402 167.56C367.402 168.36 367.082 169.08 366.442 169.72C365.882 170.28 365.202 170.56 364.402 170.56C364.082 170.56 363.722 170.52 363.322 170.44C362.922 170.36 362.522 170.16 362.122 169.84C361.322 169.44 360.202 168.72 358.762 167.68C357.322 166.56 355.802 165.36 354.202 164.08C352.682 162.72 351.322 161.52 350.122 160.48C347.722 162.24 345.242 164.08 342.682 166C340.042 167.92 338.082 169.2 336.802 169.84C335.922 170.4 335.122 170.68 334.402 170.68ZM397.495 227.56C391.895 227.56 387.495 225.88 384.295 222.52C381.175 219.08 379.615 214.32 379.615 208.24C379.615 202.24 380.895 196.88 383.455 192.16C386.015 187.44 389.535 183.72 394.015 181C398.495 178.28 403.575 176.92 409.255 176.92C413.095 176.92 416.135 177.56 418.375 178.84C420.615 180.12 421.735 181.88 421.735 184.12C421.735 186.12 420.775 188.08 418.855 190C418.135 190.72 417.175 191.4 415.975 192.04C414.855 192.6 413.975 192.88 413.335 192.88C412.615 192.88 412.015 192.6 411.535 192.04C410.735 191.16 409.695 190.32 408.415 189.52C407.135 188.72 405.335 188.32 403.015 188.32C399.095 188.32 395.895 189.68 393.415 192.4C390.935 195.04 389.695 198.52 389.695 202.84C389.695 206.76 390.815 209.92 393.055 212.32C395.295 214.72 398.255 215.92 401.935 215.92C403.855 215.92 405.935 215.6 408.175 214.96C410.495 214.24 412.535 213.24 414.295 211.96C415.175 211.16 416.095 210.76 417.055 210.76C418.655 210.76 419.455 211.76 419.455 213.76C419.455 216.4 418.135 218.92 415.495 221.32C413.495 223.16 410.815 224.68 407.455 225.88C404.175 227 400.855 227.56 397.495 227.56Z" fill="#FEA837"/>
<path d="M50.0773 352.92C47.3573 352.92 45.2373 352.04 43.7173 350.28C42.2773 348.44 41.4373 345.28 41.1973 340.8C41.0373 336.08 40.6373 331.4 39.9973 326.76C39.4373 322.04 38.6373 317.64 37.5973 313.56C36.2373 307.64 34.3973 302.2 32.0773 297.24C29.8373 292.2 26.7173 288.08 22.7173 284.88C22.0773 284.32 21.5573 283.8 21.1573 283.32C20.7573 282.76 20.5573 282.08 20.5573 281.28C20.5573 279.52 21.4373 277.84 23.1973 276.24C25.0373 274.64 27.1573 273.84 29.5573 273.84C32.3573 273.84 34.7573 275 36.7573 277.32C38.7573 279.64 40.5573 282.88 42.1573 287.04C44.8773 293.6 46.8373 300.96 48.0373 309.12C49.3173 317.2 50.0373 325 50.1973 332.52C50.2773 334.76 50.5973 336.28 51.1573 337.08C51.7173 337.8 52.6773 338.16 54.0373 338.16C56.9173 338.16 59.7173 337.04 62.4373 334.8C65.2373 332.56 67.7573 329.52 69.9973 325.68C72.3173 321.84 74.1573 317.48 75.5173 312.6C76.8773 307.72 77.5573 302.6 77.5573 297.24C77.5573 293.96 77.3173 291.32 76.8373 289.32C76.4373 287.24 75.9573 285.6 75.3973 284.4C74.6773 282.8 74.3173 281.52 74.3173 280.56C74.3173 279.36 74.8773 278.24 75.9973 277.2C77.1173 276.16 78.3973 275.32 79.8373 274.68C81.3573 273.96 82.7173 273.6 83.9173 273.6C85.5173 273.6 86.6773 274.2 87.3973 275.4C88.1173 276.52 88.5973 277.96 88.8373 279.72C89.0773 281.48 89.1973 283.28 89.1973 285.12C89.1973 290.64 88.5573 296.48 87.2773 302.64C85.9973 308.8 84.1573 314.88 81.7573 320.88C79.4373 326.8 76.6373 332.2 73.3573 337.08C70.1573 341.88 66.5973 345.72 62.6773 348.6C58.7573 351.48 54.5573 352.92 50.0773 352.92ZM105.292 291.36C103.052 291.28 101.252 290.6 99.8923 289.32C98.5323 288.04 97.8523 286.24 97.8523 283.92C97.9323 281.44 98.7723 279.44 100.372 277.92C101.972 276.32 104.012 275.56 106.492 275.64C108.812 275.72 110.612 276.4 111.892 277.68C113.252 278.96 113.892 280.76 113.812 283.08C113.732 285.48 112.932 287.48 111.412 289.08C109.892 290.6 107.852 291.36 105.292 291.36ZM105.412 352.2C103.012 352.2 101.132 351.56 99.7723 350.28C98.4123 348.92 97.7323 346.64 97.7323 343.44C97.7323 341.6 97.8923 339.8 98.2123 338.04C98.6123 336.28 99.0523 334.56 99.5323 332.88C100.092 331.12 100.532 329.32 100.852 327.48C101.252 325.64 101.452 323.68 101.452 321.6C101.452 320.16 101.252 318.8 100.852 317.52C100.452 316.16 99.5723 315.16 98.2123 314.52C97.1723 313.96 96.2523 313.4 95.4523 312.84C94.7323 312.2 94.3723 311.4 94.3723 310.44C94.3723 309.32 94.8923 308.12 95.9323 306.84C96.9723 305.56 98.3323 304.48 100.012 303.6C101.772 302.64 103.572 302.16 105.412 302.16C107.412 302.16 108.852 302.68 109.732 303.72C110.692 304.76 111.332 306.08 111.652 307.68C111.972 309.28 112.132 310.92 112.132 312.6C112.132 315.16 111.932 317.68 111.532 320.16C111.132 322.56 110.732 324.8 110.332 326.88C110.012 328.4 109.772 329.8 109.612 331.08C109.452 332.36 109.372 333.56 109.372 334.68C109.372 336.68 109.852 338.2 110.812 339.24C111.772 340.2 113.132 341.12 114.892 342C115.612 342.4 115.972 343 115.972 343.8C115.972 344.44 115.652 345.44 115.012 346.8C114.372 348.16 113.252 349.4 111.652 350.52C110.132 351.64 108.052 352.2 105.412 352.2ZM143.818 352.56C137.738 352.56 132.978 350.84 129.538 347.4C126.178 343.88 124.498 339 124.498 332.76C124.498 327.08 125.738 321.92 128.218 317.28C130.698 312.64 134.018 308.96 138.178 306.24C142.418 303.44 147.058 302.04 152.098 302.04C156.898 302.04 160.738 303.24 163.618 305.64C166.498 307.96 167.938 311.08 167.938 315C167.938 318.12 166.978 321 165.058 323.64C163.138 326.28 160.578 328.4 157.378 330C154.178 331.52 150.618 332.28 146.698 332.28C141.898 332.28 137.978 331.2 134.938 329.04C135.018 332.72 136.258 335.68 138.658 337.92C141.138 340.16 144.298 341.28 148.138 341.28C150.458 341.28 152.818 340.88 155.218 340.08C157.698 339.2 159.818 338.04 161.578 336.6C162.698 335.64 163.738 335.16 164.698 335.16C165.498 335.16 166.138 335.44 166.618 336C167.178 336.48 167.458 337.12 167.458 337.92C167.458 339.68 165.938 342 162.898 344.88C157.538 350 151.178 352.56 143.818 352.56ZM145.618 324.36C148.498 324.36 150.898 323.76 152.818 322.56C154.738 321.36 155.698 319.84 155.698 318C155.698 316.48 155.058 315.32 153.778 314.52C152.498 313.64 150.738 313.2 148.498 313.2C145.538 313.2 142.938 314 140.698 315.6C138.538 317.12 136.978 319.28 136.018 322.08C137.138 322.8 138.578 323.36 140.338 323.76C142.098 324.16 143.858 324.36 145.618 324.36ZM146.305 373.56C144.065 373.56 142.265 372.92 140.905 371.64C139.545 370.36 138.865 368.6 138.865 366.36C138.865 363.8 139.665 361.76 141.265 360.24C142.865 358.72 144.905 357.96 147.385 357.96C149.705 357.96 151.505 358.56 152.785 359.76C154.065 361.04 154.705 362.84 154.705 365.16C154.705 367.56 153.945 369.56 152.425 371.16C150.905 372.76 148.865 373.56 146.305 373.56ZM135.887 295.68C135.247 295.68 134.687 295.44 134.207 294.96C133.647 294.4 133.367 293.72 133.367 292.92C133.367 292.44 133.487 291.88 133.727 291.24C133.887 290.6 134.207 289.92 134.687 289.2C135.567 287.76 136.807 286.16 138.407 284.4C139.927 282.56 141.487 280.84 143.087 279.24C144.607 277.64 145.767 276.48 146.567 275.76C148.727 274.08 150.647 273.24 152.327 273.24C153.367 273.24 154.327 273.52 155.207 274.08C156.167 274.56 156.967 275.12 157.607 275.76C158.407 276.56 159.487 277.76 160.847 279.36C162.207 280.88 163.527 282.56 164.807 284.4C166.167 286.16 167.207 287.84 167.927 289.44C168.327 290 168.567 290.56 168.647 291.12C168.807 291.68 168.887 292.16 168.887 292.56C168.887 293.36 168.567 294.08 167.927 294.72C167.367 295.28 166.687 295.56 165.887 295.56C165.567 295.56 165.207 295.52 164.807 295.44C164.407 295.36 164.007 295.16 163.607 294.84C162.807 294.44 161.687 293.72 160.247 292.68C158.807 291.56 157.287 290.36 155.687 289.08C154.167 287.72 152.807 286.52 151.607 285.48C149.207 287.24 146.727 289.08 144.167 291C141.527 292.92 139.567 294.2 138.287 294.84C137.407 295.4 136.607 295.68 135.887 295.68ZM194.646 352.56C189.766 352.56 186.246 350.96 184.086 347.76C182.006 344.48 180.966 340.28 180.966 335.16C180.966 333.32 181.046 331.52 181.206 329.76C181.446 328 181.686 326.24 181.926 324.48C182.166 322.72 182.406 321 182.646 319.32C182.886 317.64 183.086 316.04 183.246 314.52C181.566 315 179.886 315.24 178.206 315.24C176.446 315.24 175.566 314.52 175.566 313.08C175.566 311.56 176.246 309.72 177.606 307.56C178.966 305.32 180.646 303.12 182.646 300.96C184.726 298.8 186.766 297 188.766 295.56C190.846 294.04 192.606 293.28 194.046 293.28C195.806 293.28 196.686 294.8 196.686 297.84C196.686 298.64 196.606 299.48 196.446 300.36C196.366 301.16 196.246 302 196.086 302.88C197.606 302.56 199.126 302.28 200.646 302.04C202.246 301.8 203.766 301.68 205.206 301.68C207.046 301.68 208.446 302 209.406 302.64C210.446 303.28 210.966 304.52 210.966 306.36C210.966 308.28 210.486 310.2 209.526 312.12C208.646 314.04 207.646 315 206.526 315C206.286 315 205.886 314.96 205.326 314.88C204.766 314.8 204.086 314.68 203.286 314.52C202.246 314.28 200.926 314.04 199.326 313.8C197.726 313.56 195.806 313.44 193.566 313.44C193.006 315.92 192.486 318.48 192.006 321.12C191.606 323.68 191.406 326 191.406 328.08C191.406 332.72 192.566 335.88 194.886 337.56C197.206 339.24 200.566 340.08 204.966 340.08C206.326 340.08 207.286 340.32 207.846 340.8C208.406 341.2 208.686 341.96 208.686 343.08C208.686 345.72 207.326 347.96 204.606 349.8C201.886 351.64 198.566 352.56 194.646 352.56ZM259.446 352.2C257.686 352.2 256.166 351.76 254.886 350.88C253.686 349.92 253.086 347.72 253.086 344.28C253.086 342.52 253.246 340.4 253.566 337.92C253.966 335.36 254.366 332.72 254.766 330C255.406 326.16 256.046 321.96 256.686 317.4C257.326 312.76 257.646 308.16 257.646 303.6C257.646 298.8 257.486 295.12 257.166 292.56C256.846 290 256.486 287.92 256.086 286.32C255.926 285.44 255.766 284.64 255.606 283.92C255.526 283.2 255.486 282.4 255.486 281.52C255.486 278.96 256.286 277.04 257.886 275.76C259.566 274.4 261.406 273.72 263.406 273.72C265.406 273.72 267.086 274.24 268.446 275.28C269.806 276.24 271.006 277.28 272.046 278.4C278.926 286.16 285.126 294.32 290.646 302.88C296.166 311.36 300.766 320.08 304.446 329.04C304.846 329.68 305.206 330 305.526 330C306.006 330 306.326 329.68 306.486 329.04C307.926 319.68 308.646 311.2 308.646 303.6C308.646 299.04 308.446 295.44 308.046 292.8C307.726 290.08 307.286 288 306.726 286.56C306.246 285.04 305.766 283.84 305.286 282.96C305.046 282.4 304.846 281.92 304.686 281.52C304.526 281.04 304.446 280.6 304.446 280.2C304.446 279.24 304.926 278.28 305.886 277.32C306.926 276.28 308.166 275.44 309.606 274.8C311.046 274.16 312.446 273.84 313.806 273.84C315.726 273.84 317.126 274.48 318.006 275.76C318.886 277.04 319.446 278.64 319.686 280.56C320.006 282.4 320.166 284.28 320.166 286.2C320.166 288.36 319.966 291.16 319.566 294.6C319.166 298.04 318.686 301.76 318.126 305.76C317.646 309.68 317.206 313.56 316.806 317.4C316.486 321.24 316.326 324.64 316.326 327.6C316.326 329.28 316.366 330.92 316.446 332.52C316.606 334.12 316.766 335.68 316.926 337.2C317.166 339.2 317.286 340.96 317.286 342.48C317.286 345.44 316.526 347.8 315.006 349.56C313.566 351.24 311.566 352.08 309.006 352.08C307.246 352.08 305.486 351.56 303.726 350.52C302.046 349.48 300.766 347.8 299.886 345.48C296.446 336.68 292.206 328.12 287.166 319.8C282.206 311.4 277.006 304.16 271.566 298.08C270.686 297.28 269.966 296.88 269.406 296.88C268.606 296.88 268.086 297.76 267.846 299.52C267.446 302.56 267.046 305.88 266.646 309.48C266.246 313.08 265.926 316.6 265.686 320.04C265.446 323.4 265.326 326.28 265.326 328.68C265.326 331.4 265.566 333.76 266.046 335.76C266.526 337.68 267.246 339.56 268.206 341.4C269.086 343 269.526 344.44 269.526 345.72C269.526 347.24 268.646 348.72 266.886 350.16C265.126 351.52 262.646 352.2 259.446 352.2ZM344.819 352.56C340.019 352.56 336.139 351.08 333.179 348.12C330.299 345.08 328.859 340.76 328.859 335.16C328.859 331.16 329.619 327.2 331.139 323.28C332.739 319.28 335.019 315.68 337.979 312.48C340.939 309.28 344.499 306.72 348.659 304.8C352.819 302.88 357.499 301.92 362.699 301.92C367.499 301.92 371.579 302.76 374.939 304.44C378.379 306.04 380.099 308.24 380.099 311.04C380.099 311.76 380.019 312.72 379.859 313.92C379.699 315.04 379.499 315.96 379.259 316.68C379.019 317.32 378.659 317.92 378.179 318.48C377.779 318.96 377.219 319.2 376.499 319.2C376.179 319.2 375.579 319.08 374.699 318.84C374.379 320.52 374.139 322.16 373.979 323.76C373.819 325.36 373.739 326.96 373.739 328.56C373.739 331.6 374.179 334.32 375.059 336.72C376.019 339.04 377.859 340.48 380.579 341.04C381.299 341.2 381.859 341.44 382.259 341.76C382.739 342.08 382.979 342.76 382.979 343.8C382.979 344.68 382.739 345.8 382.259 347.16C381.859 348.52 381.019 349.76 379.739 350.88C378.539 351.92 376.779 352.44 374.459 352.44C371.339 352.44 368.939 351.32 367.259 349.08C365.579 346.76 364.739 343.48 364.739 339.24C362.579 343.16 359.819 346.36 356.459 348.84C353.179 351.32 349.299 352.56 344.819 352.56ZM348.659 340.08C351.859 340.08 354.659 339.08 357.059 337.08C359.539 335.08 361.459 332.56 362.819 329.52C363.699 327.6 364.379 325.52 364.859 323.28C365.339 320.96 365.659 318.68 365.819 316.44C364.459 315.8 362.899 315.28 361.139 314.88C359.379 314.48 357.539 314.28 355.619 314.28C350.739 314.28 346.699 315.72 343.499 318.6C340.379 321.48 338.819 325.08 338.819 329.4C338.819 332.6 339.699 335.2 341.459 337.2C343.219 339.12 345.619 340.08 348.659 340.08ZM397.128 352.32C394.248 352.32 392.968 351.36 393.288 349.44C394.168 346 394.888 342.52 395.448 339C396.088 335.4 396.408 331.96 396.408 328.68C396.408 324.44 396.128 321.36 395.568 319.44C395.088 317.44 394.408 316.08 393.528 315.36C392.648 314.56 391.568 313.96 390.288 313.56C389.728 313.32 389.208 313 388.728 312.6C388.328 312.2 388.128 311.64 388.128 310.92C388.128 309.8 388.568 308.56 389.448 307.2C390.328 305.84 391.568 304.68 393.168 303.72C394.848 302.68 396.728 302.16 398.808 302.16C401.528 302.16 403.408 303.12 404.448 305.04C405.488 306.88 406.008 309.32 406.008 312.36C406.008 314.36 405.808 316.6 405.408 319.08C405.008 321.56 404.608 323.8 404.208 325.8L404.448 325.92C405.728 321.68 407.288 317.76 409.128 314.16C411.048 310.56 413.328 307.64 415.968 305.4C418.688 303.16 421.808 302.04 425.328 302.04C428.928 302.04 431.768 303.28 433.848 305.76C435.928 308.16 436.968 311.72 436.968 316.44V319.08C439.288 314.2 442.088 310.12 445.368 306.84C448.728 303.56 452.768 301.92 457.488 301.92C461.328 301.92 464.328 303.2 466.488 305.76C468.648 308.32 469.728 311.52 469.728 315.36C469.728 316.88 469.568 318.36 469.248 319.8C468.928 321.16 468.568 322.52 468.168 323.88C467.848 325.16 467.528 326.48 467.208 327.84C466.888 329.2 466.728 330.56 466.728 331.92C466.728 336.72 468.768 339.84 472.848 341.28C473.408 341.52 473.848 341.8 474.168 342.12C474.488 342.36 474.648 342.84 474.648 343.56C474.648 344.28 474.408 345.32 473.928 346.68C473.528 348.04 472.688 349.32 471.408 350.52C470.128 351.64 468.288 352.2 465.888 352.2C462.768 352.2 460.368 351.08 458.688 348.84C457.008 346.52 456.168 343.6 456.168 340.08C456.168 338.32 456.328 336.48 456.648 334.56C456.968 332.64 457.368 330.8 457.848 329.04C458.248 327.44 458.568 325.92 458.808 324.48C459.128 323.04 459.288 321.8 459.288 320.76C459.288 318.84 458.808 317.44 457.848 316.56C456.968 315.68 455.768 315.24 454.248 315.24C451.688 315.24 449.368 316.04 447.288 317.64C445.288 319.24 443.488 321.32 441.888 323.88C440.368 326.44 439.048 329.24 437.928 332.28C438.008 333 438.048 333.96 438.048 335.16C438.128 336.28 438.168 337.28 438.168 338.16C438.168 339.68 438.048 341.28 437.808 342.96C437.648 344.64 437.288 346.04 436.728 347.16C436.088 348.68 435.128 349.92 433.848 350.88C432.648 351.84 431.008 352.32 428.928 352.32C428.048 352.32 427.208 352.12 426.408 351.72C425.608 351.4 425.208 350.84 425.208 350.04C425.208 349.72 425.448 348.32 425.928 345.84C426.408 343.28 426.888 340.16 427.368 336.48C427.848 332.8 428.088 329.2 428.088 325.68C428.088 321.84 427.688 319.2 426.888 317.76C426.088 316.24 424.888 315.48 423.288 315.48C421.288 315.48 419.368 316.32 417.528 318C415.768 319.68 414.128 321.84 412.608 324.48C411.168 327.12 409.888 329.88 408.768 332.76C407.728 335.64 406.888 338.32 406.248 340.8V342.12C406.248 345.08 405.408 347.52 403.728 349.44C402.128 351.36 399.928 352.32 397.128 352.32Z" fill="#FEA837"/>
</svg>
