<svg width="512" height="512" viewBox="0 0 512 512" fill="none" xmlns="http://www.w3.org/2000/svg">
<path d="M272.641 402.511L492.349 156.445C495.791 152.527 493.741 147.852 487.223 145.126C484.065 143.793 480.134 143.045 476.057 143.004C471.98 142.963 467.995 143.63 464.739 144.899L256.017 225.817L47.2944 144.899C40.5933 142.287 31.2923 142.382 24.8109 145.107C20.3801 146.943 18 149.688 18 152.47C18 153.814 18.5492 155.158 19.6844 156.426L239.392 402.492C242.395 405.861 248.876 408 256.017 408C263.157 408 269.639 405.861 272.641 402.511Z" fill="black"/>
</svg>
