<svg width="24" height="23" viewBox="0 0 24 23" fill="none" xmlns="http://www.w3.org/2000/svg">
<path d="M12 21.858C6.05305 21.858 1.21484 17.0198 1.21484 11.0728C1.21484 5.12585 6.05305 0.287598 12 0.287598C17.947 0.287598 22.7852 5.1258 22.7852 11.0728C22.7852 17.0198 17.947 21.858 12 21.858ZM12 1.2251C6.56998 1.2251 2.15234 5.64279 2.15234 11.0728C2.15234 16.5028 6.56998 20.9205 12 20.9205C17.4301 20.9205 21.8477 16.5029 21.8477 11.0728C21.8477 5.64279 17.4301 1.2251 12 1.2251Z" fill="#292D32" stroke="#292D32" stroke-width="0.5"/>
<path d="M6.07899 17.4628C5.99921 17.4628 5.92074 17.4425 5.85102 17.4037C5.7813 17.365 5.72263 17.309 5.68056 17.2412C5.6385 17.1734 5.61443 17.096 5.61064 17.0164C5.60684 16.9367 5.62345 16.8573 5.65889 16.7859L9.58434 8.86909C9.62988 8.77726 9.70425 8.70289 9.79608 8.65735L17.7128 4.7319C17.8039 4.68674 17.9072 4.67241 18.0071 4.69107C18.1071 4.70973 18.1982 4.76037 18.2668 4.83535C18.3355 4.91033 18.3779 5.00559 18.3877 5.10677C18.3974 5.20795 18.3741 5.30957 18.321 5.39631L13.8293 12.7468C13.7905 12.8102 13.7372 12.8635 13.6738 12.9023L6.32325 17.3941C6.24973 17.4391 6.16519 17.4629 6.07899 17.4628ZM10.3541 9.42709L7.2203 15.7472L13.0883 12.1613L16.6742 6.29331L10.3541 9.42709Z" fill="#292D32" stroke="#292D32" stroke-width="0.5"/>
<path d="M11.7035 12.2068C10.9605 12.2068 10.356 11.6018 10.356 10.8581C10.356 10.1143 10.9605 9.50928 11.7035 9.50928C12.4472 9.50928 13.0523 10.1143 13.0523 10.8581C13.0523 11.6018 12.4472 12.2068 11.7035 12.2068ZM11.7035 10.4467C11.4774 10.4467 11.2935 10.6312 11.2935 10.858C11.2935 11.0848 11.4774 11.2693 11.7035 11.2693C11.9303 11.2693 12.1148 11.0848 12.1148 10.858C12.1148 10.6312 11.9303 10.4467 11.7035 10.4467Z" fill="#292D32"/>
</svg>
